<?xml version="1.0" encoding="utf-8"?>
<!-- Generator: Adobe Illustrator 25.3.1, SVG Export Plug-In . SVG Version: 6.00 Build 0)  -->
<svg version="1.1" id="Layer_1" xmlns="http://www.w3.org/2000/svg" xmlns:xlink="http://www.w3.org/1999/xlink" x="0px" y="0px"
	 viewBox="0 0 310.5 103.22" style="enable-background:new 0 0 310.5 103.22;" xml:space="preserve">
<style type="text/css">
	.st0{fill:none;stroke:#3DB659;stroke-width:18;stroke-linecap:round;stroke-linejoin:round;stroke-miterlimit:8;}
	.st1{enable-background:new    ;}
	.st2{fill:#0076A3;}
	.st3{fill:#006991;}
	.st4{fill:#006E98;}
	.st5{fill:#009AD4;}
	.st6{fill:#00709A;}
	.st7{clip-path:url(#SVGID_2_);enable-background:new    ;}
	.st8{fill:#006B94;}
	.st9{fill:#00739E;}
	.st10{clip-path:url(#SVGID_4_);enable-background:new    ;}
	.st11{fill:#00749F;}
	.st12{clip-path:url(#SVGID_6_);enable-background:new    ;}
	.st13{clip-path:url(#SVGID_8_);enable-background:new    ;}
	.st14{clip-path:url(#SVGID_10_);enable-background:new    ;}
	.st15{clip-path:url(#SVGID_12_);enable-background:new    ;}
	.st16{clip-path:url(#SVGID_14_);enable-background:new    ;}
	.st17{clip-path:url(#SVGID_16_);enable-background:new    ;}
	.st18{fill:#0079A7;}
	.st19{fill:#007CAB;}
	.st20{clip-path:url(#SVGID_18_);enable-background:new    ;}
	.st21{clip-path:url(#SVGID_20_);enable-background:new    ;}
	.st22{clip-path:url(#SVGID_22_);enable-background:new    ;}
	.st23{clip-path:url(#SVGID_24_);enable-background:new    ;}
	.st24{clip-path:url(#SVGID_26_);enable-background:new    ;}
	.st25{clip-path:url(#SVGID_28_);enable-background:new    ;}
	.st26{clip-path:url(#SVGID_30_);enable-background:new    ;}
	.st27{clip-path:url(#SVGID_32_);enable-background:new    ;}
	.st28{clip-path:url(#SVGID_34_);enable-background:new    ;}
	.st29{clip-path:url(#SVGID_36_);enable-background:new    ;}
	.st30{clip-path:url(#SVGID_38_);enable-background:new    ;}
	.st31{clip-path:url(#SVGID_40_);enable-background:new    ;}
	.st32{clip-path:url(#SVGID_42_);enable-background:new    ;}
	.st33{clip-path:url(#SVGID_44_);enable-background:new    ;}
	.st34{clip-path:url(#SVGID_46_);enable-background:new    ;}
	.st35{fill:#00729E;}
	.st36{clip-path:url(#SVGID_48_);enable-background:new    ;}
	.st37{clip-path:url(#SVGID_50_);enable-background:new    ;}
	.st38{clip-path:url(#SVGID_52_);enable-background:new    ;}
	.st39{clip-path:url(#SVGID_54_);enable-background:new    ;}
	.st40{clip-path:url(#SVGID_56_);enable-background:new    ;}
	.st41{clip-path:url(#SVGID_58_);enable-background:new    ;}
	.st42{fill:#00719C;}
	.st43{clip-path:url(#SVGID_60_);enable-background:new    ;}
	.st44{clip-path:url(#SVGID_62_);enable-background:new    ;}
	.st45{clip-path:url(#SVGID_64_);enable-background:new    ;}
	.st46{clip-path:url(#SVGID_66_);enable-background:new    ;}
	.st47{clip-path:url(#SVGID_68_);enable-background:new    ;}
	.st48{clip-path:url(#SVGID_70_);enable-background:new    ;}
	.st49{clip-path:url(#SVGID_72_);enable-background:new    ;}
	.st50{clip-path:url(#SVGID_74_);enable-background:new    ;}
	.st51{clip-path:url(#SVGID_76_);enable-background:new    ;}
	.st52{clip-path:url(#SVGID_78_);enable-background:new    ;}
	.st53{clip-path:url(#SVGID_80_);enable-background:new    ;}
	.st54{clip-path:url(#SVGID_82_);enable-background:new    ;}
	.st55{fill:#0078A5;}
	.st56{clip-path:url(#SVGID_84_);enable-background:new    ;}
	.st57{clip-path:url(#SVGID_86_);enable-background:new    ;}
	.st58{clip-path:url(#SVGID_88_);enable-background:new    ;}
	.st59{clip-path:url(#SVGID_90_);enable-background:new    ;}
	.st60{fill:#00729D;}
	.st61{clip-path:url(#SVGID_92_);enable-background:new    ;}
	.st62{clip-path:url(#SVGID_94_);enable-background:new    ;}
	.st63{clip-path:url(#SVGID_96_);enable-background:new    ;}
	.st64{clip-path:url(#SVGID_98_);enable-background:new    ;}
	.st65{clip-path:url(#SVGID_100_);enable-background:new    ;}
	.st66{clip-path:url(#SVGID_102_);enable-background:new    ;}
	.st67{clip-path:url(#SVGID_104_);enable-background:new    ;}
	.st68{clip-path:url(#SVGID_106_);enable-background:new    ;}
	.st69{clip-path:url(#SVGID_108_);enable-background:new    ;}
	.st70{clip-path:url(#SVGID_110_);enable-background:new    ;}
	.st71{clip-path:url(#SVGID_112_);enable-background:new    ;}
	.st72{clip-path:url(#SVGID_114_);enable-background:new    ;}
	.st73{clip-path:url(#SVGID_116_);enable-background:new    ;}
	.st74{clip-path:url(#SVGID_118_);enable-background:new    ;}
	.st75{clip-path:url(#SVGID_120_);enable-background:new    ;}
	.st76{clip-path:url(#SVGID_122_);enable-background:new    ;}
	.st77{clip-path:url(#SVGID_124_);enable-background:new    ;}
	.st78{clip-path:url(#SVGID_126_);enable-background:new    ;}
	.st79{clip-path:url(#SVGID_128_);enable-background:new    ;}
	.st80{fill:#0079A6;}
	.st81{clip-path:url(#SVGID_130_);enable-background:new    ;}
	.st82{fill:#006C96;}
	.st83{clip-path:url(#SVGID_132_);enable-background:new    ;}
	.st84{clip-path:url(#SVGID_134_);enable-background:new    ;}
</style>
<path class="st0" d="M6.69,6"/>
<g>
	<g>
		<g class="st1">
			<g>
				<polygon points="14.8,4.2 16.54,5.95 2.79,5.95 1.04,4.2 				"/>
			</g>
			<g>
				<polygon points="56.69,4.2 58.44,5.95 44.26,5.95 42.52,4.2 				"/>
			</g>
			<g>
				<polygon class="st2" points="14.8,4.2 16.54,5.95 17.72,71.38 15.97,69.64 				"/>
			</g>
			<g>
				<polygon points="15.78,3.21 17.52,4.95 18.62,66.47 16.88,64.73 				"/>
			</g>
			<g>
				<polygon points="1.04,4.2 2.79,5.95 5.95,80.71 4.21,78.97 				"/>
			</g>
			<g>
				<polygon points="42.52,4.2 44.26,5.95 17.72,71.38 15.97,69.64 				"/>
			</g>
			<g>
				<polygon class="st3" points="24.3,78.97 26.05,80.71 5.95,80.71 4.21,78.97 				"/>
			</g>
			<g>
				<polygon class="st4" points="56.69,4.2 58.44,5.95 26.05,80.71 24.3,78.97 				"/>
			</g>
			<g>
				<polygon class="st5" points="56.69,4.2 24.3,78.97 4.21,78.97 1.04,4.2 14.8,4.2 15.97,69.64 42.52,4.2 				"/>
			</g>
			<g>
				<polygon points="58.22,3.21 59.97,4.95 26.71,81.71 24.97,79.96 				"/>
			</g>
			<g>
				<polygon points="24.97,79.96 26.71,81.71 4.99,81.71 3.24,79.96 				"/>
			</g>
			<g>
				<path d="M41.84,3.21h16.38L24.97,79.96H3.24L0,3.21h15.78l1.1,61.52L41.84,3.21z M24.3,78.97L56.69,4.21H42.52L15.97,69.64
					L14.8,4.2H1.04L4.2,78.96L24.3,78.97"/>
			</g>
			<g>
				<polygon class="st6" points="73.07,44.6 74.81,46.34 74.59,47 72.85,45.26 				"/>
			</g>
			<g class="st1">
				<g>
					<defs>
						<path id="SVGID_1_" d="M89.61,34.02c-3.49,0-6.51,1.05-9,3.11c-0.58-0.58-1.16-1.16-1.74-1.74c2.49-2.06,5.51-3.11,9-3.11
							c0.06,0.06,0.14,0.14,0.2,0.2s0.15,0.15,0.22,0.22s0.16,0.16,0.22,0.22c0.07,0.07,0.16,0.16,0.23,0.23
							C89.03,33.44,89.32,33.73,89.61,34.02z"/>
					</defs>
					<clipPath id="SVGID_2_">
						<use xlink:href="#SVGID_1_"  style="overflow:visible;"/>
					</clipPath>
					<g class="st7">
						<path class="st8" d="M95.44,35.02l1.74,1.74c-0.04-0.04-0.08-0.08-0.12-0.12c-1.81-1.74-4.31-2.63-7.44-2.63
							c-3.49,0-6.51,1.05-9,3.11c-1.26,1.05-2.39,2.38-3.38,3.96l-1.74-1.74c0.99-1.59,2.11-2.91,3.38-3.96
							c2.49-2.06,5.51-3.11,9-3.11c3.13,0,5.64,0.89,7.44,2.63C95.35,34.94,95.4,34.98,95.44,35.02"/>
					</g>
				</g>
			</g>
			<g>
				<polygon class="st9" points="71.03,55.36 72.77,57.11 72.7,57.52 70.96,55.78 				"/>
			</g>
			<g class="st1">
				<g>
					<defs>
						<path id="SVGID_3_" d="M70.96,55.78l1.74,1.74c-0.1,0.59-0.18,1.14-0.24,1.66c-0.05,0.51-0.09,1.03-0.13,1.57l-1.74-1.74
							c0.04-0.55,0.07-1.06,0.13-1.57C70.78,56.92,70.86,56.37,70.96,55.78z"/>
					</defs>
					<clipPath id="SVGID_4_">
						<use xlink:href="#SVGID_3_"  style="overflow:visible;"/>
					</clipPath>
					<g class="st10">
						<path class="st11" d="M70.96,55.78l1.74,1.74c-0.1,0.59-0.18,1.14-0.24,1.66c-0.04,0.34-0.06,0.67-0.09,1.02l-1.74-1.74
							c0.03-0.35,0.05-0.68,0.09-1.02C70.78,56.92,70.86,56.37,70.96,55.78"/>
						<path class="st2" d="M70.63,58.46l1.74,1.74c-0.01,0.18-0.03,0.37-0.04,0.56l-1.74-1.74C70.61,58.83,70.62,58.64,70.63,58.46"
							/>
					</g>
				</g>
			</g>
			<g class="st1">
				<g>
					<defs>
						<path id="SVGID_5_" d="M97.06,36.65c-1.81-1.74-4.31-2.63-7.44-2.63c-0.58-0.58-1.16-1.16-1.74-1.74
							c3.13,0,5.64,0.89,7.44,2.63C95.89,35.48,96.48,36.07,97.06,36.65z"/>
					</defs>
					<clipPath id="SVGID_6_">
						<use xlink:href="#SVGID_5_"  style="overflow:visible;"/>
					</clipPath>
					<g class="st12">
						<path class="st8" d="M95.44,35.02l1.74,1.74c-0.04-0.04-0.08-0.08-0.12-0.12c-1.81-1.74-4.31-2.63-7.44-2.63
							c-3.49,0-6.51,1.05-9,3.11c-1.26,1.05-2.39,2.38-3.38,3.96l-1.74-1.74c0.99-1.59,2.11-2.91,3.38-3.96
							c2.49-2.06,5.51-3.11,9-3.11c3.13,0,5.64,0.89,7.44,2.63C95.35,34.94,95.4,34.98,95.44,35.02"/>
					</g>
				</g>
			</g>
			<g class="st1">
				<g>
					<defs>
						<path id="SVGID_7_" d="M94.72,35.73l1.74,1.74c-0.03-0.03-0.07-0.07-0.11-0.1c-1.62-1.56-3.89-2.34-6.75-2.34
							c-3.25,0-6.06,0.96-8.36,2.88c-2.19,1.81-3.95,4.53-5.26,8.1l-1.74-1.74c1.31-3.56,3.07-6.29,5.26-8.1
							c2.3-1.92,5.11-2.88,8.36-2.88c2.86,0,5.13,0.78,6.75,2.34C94.65,35.66,94.69,35.69,94.72,35.73z"/>
					</defs>
					<clipPath id="SVGID_8_">
						<use xlink:href="#SVGID_7_"  style="overflow:visible;"/>
					</clipPath>
					<g class="st13">
						<path d="M94.72,35.73l1.74,1.74c-0.03-0.03-0.07-0.07-0.11-0.1c-1.62-1.56-3.89-2.34-6.75-2.34c-3.25,0-6.06,0.96-8.36,2.88
							c-1.18,0.98-2.24,2.22-3.17,3.72l-1.74-1.74c0.93-1.5,1.99-2.74,3.17-3.72c2.3-1.92,5.11-2.88,8.36-2.88
							c2.86,0,5.13,0.78,6.75,2.34C94.65,35.66,94.69,35.69,94.72,35.73"/>
						<path d="M76.34,39.88l1.74,1.74c-0.69,1.11-1.31,2.36-1.85,3.74l-1.74-1.74C75.03,42.24,75.65,40.99,76.34,39.88"/>
						<path d="M74.49,43.62l1.74,1.74c-0.08,0.21-0.16,0.42-0.24,0.63l-1.74-1.74C74.32,44.04,74.4,43.83,74.49,43.62"/>
					</g>
				</g>
			</g>
			<g class="st1">
				<g>
					<defs>
						<path id="SVGID_9_" d="M95.44,35.02l1.74,1.74c1.74,1.74,2.62,4.11,2.61,7.04c0,0.42-0.03,0.88-0.08,1.35l-1.74-1.74
							c0.05-0.47,0.08-0.93,0.08-1.35C98.05,39.13,97.18,36.77,95.44,35.02z"/>
					</defs>
					<clipPath id="SVGID_10_">
						<use xlink:href="#SVGID_9_"  style="overflow:visible;"/>
					</clipPath>
					<g class="st14">
						<path d="M95.44,35.02l1.74,1.74c1.04,1.04,1.77,2.31,2.19,3.78l-1.74-1.74C97.21,37.33,96.48,36.06,95.44,35.02"/>
						<path d="M97.63,38.8l1.74,1.74c0.19,0.66,0.31,1.36,0.38,2.1l-1.74-1.74C97.94,40.16,97.81,39.46,97.63,38.8"/>
						<path d="M98,40.9l1.74,1.74c0.03,0.38,0.05,0.76,0.05,1.16c0,0.26-0.01,0.53-0.03,0.81l-1.74-1.74
							c0.02-0.28,0.03-0.55,0.03-0.81C98.05,41.67,98.03,41.28,98,40.9"/>
						<path d="M98.02,42.87l1.74,1.74c-0.01,0.18-0.03,0.36-0.05,0.54l-1.74-1.74C97.99,43.23,98,43.05,98.02,42.87"/>
					</g>
				</g>
			</g>
			<g class="st1">
				<g>
					<defs>
						<path id="SVGID_11_" d="M97.18,36.77c-0.04-0.04-0.08-0.08-0.12-0.12c-0.58-0.58-1.16-1.16-1.74-1.74
							c0.04,0.04,0.08,0.08,0.12,0.12C95.96,35.55,96.66,36.24,97.18,36.77z"/>
					</defs>
					<clipPath id="SVGID_12_">
						<use xlink:href="#SVGID_11_"  style="overflow:visible;"/>
					</clipPath>
					<g class="st15">
						<path class="st8" d="M95.44,35.02l1.74,1.74c-0.04-0.04-0.08-0.08-0.12-0.12c-1.81-1.74-4.31-2.63-7.44-2.63
							c-3.49,0-6.51,1.05-9,3.11c-1.26,1.05-2.39,2.38-3.38,3.96l-1.74-1.74c0.99-1.59,2.11-2.91,3.38-3.96
							c2.49-2.06,5.51-3.11,9-3.11c3.13,0,5.64,0.89,7.44,2.63C95.35,34.94,95.4,34.98,95.44,35.02"/>
					</g>
				</g>
			</g>
			<g class="st1">
				<g>
					<defs>
						<path id="SVGID_13_" d="M71.87,56.36l1.74,1.74c-0.06,0.41-0.12,0.81-0.15,1.18c-0.05,0.5-0.1,1.01-0.13,1.5l-1.74-1.74
							c0.03-0.49,0.07-1,0.13-1.5C71.76,57.17,71.81,56.78,71.87,56.36z"/>
					</defs>
					<clipPath id="SVGID_14_">
						<use xlink:href="#SVGID_13_"  style="overflow:visible;"/>
					</clipPath>
					<g class="st16">
						<path d="M71.87,56.36l1.74,1.74c-0.06,0.41-0.12,0.81-0.15,1.18c-0.04,0.37-0.07,0.74-0.1,1.1l-1.74-1.74
							c0.03-0.36,0.06-0.73,0.1-1.1C71.76,57.17,71.81,56.78,71.87,56.36"/>
						<path d="M71.62,58.64l1.74,1.74c-0.01,0.13-0.02,0.27-0.03,0.4l-1.74-1.74C71.6,58.91,71.61,58.78,71.62,58.64"/>
					</g>
				</g>
			</g>
			<g class="st1">
				<g>
					<defs>
						<path id="SVGID_15_" d="M73.16,65.21c-0.58-0.58-1.16-1.16-1.74-1.74c-0.55-1.29-0.82-2.78-0.82-4.45l1.74,1.74
							C72.34,62.43,72.61,63.92,73.16,65.21z"/>
					</defs>
					<clipPath id="SVGID_16_">
						<use xlink:href="#SVGID_15_"  style="overflow:visible;"/>
					</clipPath>
					<g class="st17">
						<path class="st2" d="M70.59,59.02l1.74,1.74c0,0.41,0.02,0.81,0.05,1.2l-1.74-1.74C70.61,59.83,70.59,59.43,70.59,59.02"/>
						<path class="st18" d="M70.64,60.22l1.74,1.74c0.06,0.76,0.19,1.48,0.38,2.15l-1.74-1.74C70.83,61.69,70.71,60.98,70.64,60.22"
							/>
						<path class="st19" d="M71.03,62.37l1.74,1.74c0.42,1.49,1.16,2.76,2.2,3.81l-1.74-1.74C72.19,65.13,71.45,63.86,71.03,62.37"
							/>
					</g>
				</g>
			</g>
			<g class="st1">
				<g>
					<defs>
						<path id="SVGID_17_" d="M73.16,65.21c0.01,0.02,0.01,0.03,0.02,0.05c-0.58-0.58-1.16-1.16-1.74-1.74
							c-0.01-0.02-0.01-0.03-0.02-0.05c0.03,0.03,0.07,0.07,0.11,0.11c0.03,0.03,0.08,0.08,0.11,0.11c0.04,0.04,0.08,0.08,0.12,0.12
							s0.08,0.08,0.12,0.12c0.15,0.15,0.3,0.3,0.46,0.46c0.03,0.03,0.07,0.07,0.1,0.1s0.07,0.07,0.1,0.1s0.07,0.07,0.11,0.11
							c0.03,0.03,0.08,0.08,0.11,0.11s0.08,0.08,0.11,0.11s0.07,0.07,0.11,0.11c0.02,0.02,0.04,0.04,0.05,0.05
							c0.03,0.03,0.07,0.07,0.1,0.1C73.12,65.18,73.14,65.2,73.16,65.21z"/>
					</defs>
					<clipPath id="SVGID_18_">
						<use xlink:href="#SVGID_17_"  style="overflow:visible;"/>
					</clipPath>
					<g class="st20">
						<path class="st19" d="M71.03,62.37l1.74,1.74c0.42,1.49,1.16,2.76,2.2,3.81l-1.74-1.74C72.19,65.13,71.45,63.86,71.03,62.37"
							/>
					</g>
				</g>
			</g>
			<g class="st1">
				<g>
					<defs>
						<path id="SVGID_19_" d="M73.46,65.86c-0.58-0.58-1.16-1.16-1.74-1.74c-0.1-0.19-0.19-0.39-0.28-0.59
							c0.06,0.06,0.14,0.14,0.2,0.2s0.15,0.15,0.22,0.22c0.07,0.07,0.16,0.16,0.22,0.22c0.07,0.07,0.16,0.16,0.23,0.23
							c0.07,0.07,0.16,0.16,0.23,0.23c0.07,0.07,0.16,0.16,0.22,0.22s0.15,0.15,0.22,0.22c0.06,0.06,0.14,0.14,0.2,0.2
							C73.26,65.47,73.36,65.66,73.46,65.86z"/>
					</defs>
					<clipPath id="SVGID_20_">
						<use xlink:href="#SVGID_19_"  style="overflow:visible;"/>
					</clipPath>
					<g class="st21">
						<path class="st19" d="M71.03,62.37l1.74,1.74c0.42,1.49,1.16,2.76,2.2,3.81l-1.74-1.74C72.19,65.13,71.45,63.86,71.03,62.37"
							/>
					</g>
				</g>
			</g>
			<g class="st1">
				<g>
					<defs>
						<path id="SVGID_21_" d="M73.46,65.86c0.01,0.02,0.02,0.03,0.02,0.05c-0.58-0.58-1.16-1.16-1.74-1.74
							c-0.01-0.02-0.02-0.03-0.02-0.05c0.53,0.53,1.06,1.06,1.58,1.58C73.35,65.75,73.41,65.8,73.46,65.86z"/>
					</defs>
					<clipPath id="SVGID_22_">
						<use xlink:href="#SVGID_21_"  style="overflow:visible;"/>
					</clipPath>
					<g class="st22">
						<path class="st19" d="M71.03,62.37l1.74,1.74c0.42,1.49,1.16,2.76,2.2,3.81l-1.74-1.74C72.19,65.13,71.45,63.86,71.03,62.37"
							/>
					</g>
				</g>
			</g>
			<g class="st1">
				<g>
					<defs>
						<path id="SVGID_23_" d="M104.97,27.94l1.74,1.74c-0.11-0.11-0.22-0.22-0.34-0.33c-4.14-3.95-9.74-5.95-16.65-5.95
							c-4.43,0-8.64,0.91-12.47,2.72c-3.84,1.8-7.2,4.43-9.99,7.81c-2.66,3.21-4.75,7.07-6.21,11.46c-1.47,4.39-2.22,8.99-2.23,13.7
							c-0.01,7.21,1.95,12.82,5.84,16.71l-1.74-1.74c-3.88-3.88-5.84-9.5-5.84-16.71c0.01-4.7,0.76-9.31,2.23-13.7
							c1.46-4.39,3.55-8.25,6.21-11.46c2.79-3.38,6.15-6.01,9.99-7.81c3.83-1.81,8.04-2.72,12.47-2.72c6.91,0,12.51,2,16.65,5.95
							C104.74,27.72,104.86,27.83,104.97,27.94z"/>
					</defs>
					<clipPath id="SVGID_24_">
						<use xlink:href="#SVGID_23_"  style="overflow:visible;"/>
					</clipPath>
					<g class="st23">
						<path d="M104.97,27.94l1.74,1.74c-0.11-0.11-0.22-0.22-0.34-0.33c-4.14-3.95-9.74-5.95-16.65-5.95
							c-4.43,0-8.64,0.91-12.47,2.72c-3.84,1.8-7.2,4.43-9.99,7.81c-0.91,1.11-1.76,2.29-2.54,3.54l-1.74-1.74
							c0.78-1.25,1.63-2.44,2.54-3.54c2.79-3.38,6.15-6.01,9.99-7.81c3.83-1.81,8.04-2.72,12.47-2.72c6.91,0,12.51,2,16.65,5.95
							C104.74,27.72,104.86,27.83,104.97,27.94"/>
						<path d="M62.98,35.73l1.74,1.74c-1.12,1.81-2.1,3.77-2.92,5.86l-1.74-1.74C60.88,39.49,61.86,37.54,62.98,35.73"/>
						<path d="M60.05,41.59l1.74,1.74c-0.26,0.67-0.51,1.36-0.75,2.06c-0.46,1.38-0.85,2.78-1.17,4.2l-1.74-1.74
							c0.32-1.42,0.71-2.82,1.17-4.2C59.54,42.95,59.79,42.26,60.05,41.59"/>
						<path d="M58.13,47.84l1.74,1.74c-0.47,2.08-0.78,4.19-0.94,6.33l-1.74-1.74C57.35,52.03,57.67,49.92,58.13,47.84"/>
						<path d="M57.19,54.17l1.74,1.74c-0.08,1.05-0.12,2.11-0.12,3.17s0.04,2.08,0.12,3.06l-1.73-1.73
							c-0.08-0.99-0.12-2.01-0.12-3.06C57.08,56.28,57.12,55.22,57.19,54.17"/>
						<path d="M57.2,60.41l1.74,1.74c0.16,1.88,0.47,3.63,0.93,5.25l-1.74-1.74C57.67,64.04,57.36,62.28,57.2,60.41"/>
						<path d="M58.13,65.66l1.74,1.74c0.95,3.35,2.55,6.16,4.78,8.39l-1.74-1.74C60.68,71.82,59.08,69.01,58.13,65.66"/>
					</g>
				</g>
			</g>
			<g class="st1">
				<g>
					<defs>
						<path id="SVGID_25_" d="M65.19,76.3c-0.18-0.17-0.36-0.34-0.53-0.51l-1.74-1.74c0.17,0.17,0.35,0.34,0.53,0.51
							C64.02,75.14,64.6,75.72,65.19,76.3z"/>
					</defs>
					<clipPath id="SVGID_26_">
						<use xlink:href="#SVGID_25_"  style="overflow:visible;"/>
					</clipPath>
					<g class="st24">
						<path class="st8" d="M102.65,76.32l1.74,1.74c-3.1,1.35-6.36,2.37-9.71,3.06c-3.44,0.7-7.03,1.05-10.71,1.05
							c-8.22,0-14.54-1.98-18.78-5.87c-0.18-0.17-0.36-0.34-0.53-0.51l-1.74-1.74c0.17,0.17,0.35,0.34,0.53,0.51
							c4.24,3.89,10.56,5.87,18.78,5.87c3.68,0,7.28-0.35,10.71-1.05C96.28,78.7,99.55,77.67,102.65,76.32"/>
					</g>
				</g>
			</g>
			<g class="st1">
				<g>
					<defs>
						<path id="SVGID_27_" d="M75.67,67.2l-1.74-1.74c-1.57-1.57-2.33-3.69-2.33-6.41l1.74,1.74C73.33,63.51,74.09,65.63,75.67,67.2
							z"/>
					</defs>
					<clipPath id="SVGID_28_">
						<use xlink:href="#SVGID_27_"  style="overflow:visible;"/>
					</clipPath>
					<g class="st25">
						<path d="M71.59,59.04l1.74,1.74c0,0.39,0.01,0.76,0.05,1.12l-1.74-1.74C71.61,59.81,71.59,59.43,71.59,59.04"/>
						<path d="M71.64,60.17l1.74,1.74c0.06,0.69,0.17,1.33,0.34,1.94l-1.74-1.74C71.81,61.5,71.69,60.86,71.64,60.17"/>
						<path d="M71.98,62.11l1.74,1.74c0.37,1.31,1.02,2.42,1.94,3.35l-1.74-1.74C73,64.53,72.35,63.42,71.98,62.11"/>
					</g>
				</g>
			</g>
			<g class="st1">
				<g>
					<defs>
						<path id="SVGID_29_" d="M73.48,65.9c0.4,0.75,0.89,1.42,1.49,2.02l-1.74-1.74c-0.6-0.6-1.1-1.27-1.49-2.02
							c0.06,0.06,0.14,0.14,0.2,0.2s0.15,0.15,0.22,0.22c0.15,0.15,0.3,0.3,0.45,0.45c0.07,0.07,0.16,0.16,0.23,0.23
							c0.07,0.07,0.16,0.16,0.22,0.22c0.03,0.03,0.08,0.08,0.11,0.11s0.07,0.07,0.11,0.11C73.34,65.76,73.43,65.83,73.48,65.9z"/>
					</defs>
					<clipPath id="SVGID_30_">
						<use xlink:href="#SVGID_29_"  style="overflow:visible;"/>
					</clipPath>
					<g class="st26">
						<path class="st19" d="M71.03,62.37l1.74,1.74c0.42,1.49,1.16,2.76,2.2,3.81l-1.74-1.74C72.19,65.13,71.45,63.86,71.03,62.37"
							/>
					</g>
				</g>
			</g>
			<g>
				<polygon points="97.19,45.26 98.93,47 74.59,47 72.85,45.26 				"/>
			</g>
			<g class="st1">
				<g>
					<defs>
						<path id="SVGID_31_" d="M97.96,43.41l1.74,1.74c-0.05,0.49-0.15,0.98-0.29,1.48l-1.74-1.74
							C97.81,44.39,97.92,43.9,97.96,43.41z"/>
					</defs>
					<clipPath id="SVGID_32_">
						<use xlink:href="#SVGID_31_"  style="overflow:visible;"/>
					</clipPath>
					<g class="st27">
						<path d="M97.96,43.41l1.74,1.74c-0.03,0.31-0.09,0.63-0.16,0.96l-1.74-1.74C97.88,44.04,97.94,43.73,97.96,43.41"/>
						<path d="M97.81,44.37l1.74,1.74c-0.04,0.18-0.08,0.35-0.13,0.53l-1.74-1.74C97.72,44.72,97.77,44.54,97.81,44.37"/>
					</g>
				</g>
			</g>
			<g>
				<polygon points="97.57,45.26 99.31,47 98.93,47 97.19,45.26 				"/>
			</g>
			<g>
				<polygon points="97.68,44.9 99.42,46.64 99.31,47 97.57,45.26 				"/>
			</g>
			<g class="st1">
				<g>
					<defs>
						<path id="SVGID_33_" d="M106.71,29.68c3.91,3.91,5.89,9.11,5.89,15.45c-0.58-0.58-1.16-1.16-1.74-1.74
							c0.01-6.34-1.98-11.54-5.89-15.45C105.49,28.46,106.19,29.16,106.71,29.68z"/>
					</defs>
					<clipPath id="SVGID_34_">
						<use xlink:href="#SVGID_33_"  style="overflow:visible;"/>
					</clipPath>
					<g class="st28">
						<path class="st19" d="M104.97,27.94l1.74,1.74c2.38,2.38,4.04,5.23,4.98,8.53l-1.74-1.74
							C109.01,33.17,107.35,30.32,104.97,27.94"/>
						<path class="st18" d="M109.95,36.47l1.74,1.74c0.4,1.42,0.67,2.92,0.81,4.5l-1.74-1.74
							C110.62,39.39,110.35,37.89,109.95,36.47"/>
						<path class="st2" d="M110.76,40.97l1.74,1.74c0.07,0.79,0.1,1.59,0.1,2.42c0,0.86-0.04,1.81-0.12,2.84l-1.74-1.74
							c0.08-1.02,0.12-1.97,0.12-2.84C110.86,42.56,110.82,41.75,110.76,40.97"/>
					</g>
				</g>
			</g>
			<g class="st1">
				<g>
					<defs>
						<path id="SVGID_35_" d="M74.97,67.92l-1.74-1.74c0.29,0.29,0.61,0.57,0.95,0.83c2.34,1.76,5.82,2.66,10.34,2.66
							c3.69,0,7.42-0.54,11.1-1.59c3.31-0.95,6.46-2.3,9.37-4.03l1.74,1.74c-2.91,1.73-6.06,3.08-9.37,4.03
							c-3.68,1.05-7.41,1.59-11.1,1.59c-4.52,0-8-0.9-10.34-2.66C75.58,68.49,75.27,68.22,74.97,67.92z"/>
					</defs>
					<clipPath id="SVGID_36_">
						<use xlink:href="#SVGID_35_"  style="overflow:visible;"/>
					</clipPath>
					<g class="st29">
						<path d="M104.99,64.04l1.74,1.74c-2.91,1.73-6.06,3.08-9.37,4.03c-3.68,1.05-7.41,1.59-11.1,1.59c-4.52,0-8-0.9-10.34-2.66
							c-0.34-0.26-0.66-0.53-0.95-0.83l-1.74-1.74c0.29,0.29,0.61,0.57,0.95,0.83c2.34,1.76,5.82,2.66,10.34,2.66
							c3.69,0,7.42-0.54,11.1-1.59C98.93,67.12,102.08,65.77,104.99,64.04"/>
					</g>
				</g>
			</g>
			<g class="st1">
				<g>
					<defs>
						<path id="SVGID_37_" d="M112.6,45.13c0,1.5-0.12,3.26-0.34,5.23c-0.58-0.58-1.16-1.16-1.74-1.74
							c0.22-1.97,0.34-3.72,0.34-5.23c0.06,0.06,0.14,0.14,0.2,0.2s0.15,0.15,0.22,0.22s0.16,0.16,0.22,0.22
							c0.07,0.07,0.16,0.16,0.23,0.23c0.07,0.07,0.16,0.16,0.23,0.23c0.07,0.07,0.16,0.16,0.22,0.22s0.15,0.15,0.22,0.22
							C112.46,44.99,112.54,45.07,112.6,45.13z"/>
					</defs>
					<clipPath id="SVGID_38_">
						<use xlink:href="#SVGID_37_"  style="overflow:visible;"/>
					</clipPath>
					<g class="st30">
						<path class="st2" d="M110.76,40.97l1.74,1.74c0.07,0.79,0.1,1.59,0.1,2.42c0,0.86-0.04,1.81-0.12,2.84l-1.74-1.74
							c0.08-1.02,0.12-1.97,0.12-2.84C110.86,42.56,110.82,41.75,110.76,40.97"/>
						<path class="st11" d="M110.74,46.22l1.74,1.74c-0.06,0.76-0.13,1.55-0.22,2.39c-0.21,1.88-0.54,4.16-0.97,6.75l-1.74-1.74
							c0.43-2.6,0.76-4.88,0.97-6.75C110.61,47.77,110.68,46.98,110.74,46.22"/>
					</g>
				</g>
			</g>
			<g class="st1">
				<g>
					<defs>
						<path id="SVGID_39_" d="M83.97,82.18c-8.22,0-14.54-1.98-18.78-5.87c-0.58-0.58-1.16-1.16-1.74-1.74
							c4.24,3.89,10.56,5.87,18.78,5.87c0.14,0.14,0.28,0.28,0.42,0.42c0.07,0.07,0.16,0.16,0.22,0.22
							c0.07,0.07,0.16,0.16,0.23,0.23C83.39,81.6,83.68,81.89,83.97,82.18z"/>
					</defs>
					<clipPath id="SVGID_40_">
						<use xlink:href="#SVGID_39_"  style="overflow:visible;"/>
					</clipPath>
					<g class="st31">
						<path class="st8" d="M102.65,76.32l1.74,1.74c-3.1,1.35-6.36,2.37-9.71,3.06c-3.44,0.7-7.03,1.05-10.71,1.05
							c-8.22,0-14.54-1.98-18.78-5.87c-0.18-0.17-0.36-0.34-0.53-0.51l-1.74-1.74c0.17,0.17,0.35,0.34,0.53,0.51
							c4.24,3.89,10.56,5.87,18.78,5.87c3.68,0,7.28-0.35,10.71-1.05C96.28,78.7,99.55,77.67,102.65,76.32"/>
					</g>
				</g>
			</g>
			<g class="st1">
				<g>
					<defs>
						<path id="SVGID_41_" d="M112.26,50.36c-0.21,1.88-0.54,4.16-0.97,6.75l-1.74-1.74c0.43-2.6,0.76-4.88,0.97-6.75
							c0.06,0.06,0.14,0.14,0.2,0.2s0.15,0.15,0.22,0.22s0.16,0.16,0.22,0.22c0.07,0.07,0.16,0.16,0.23,0.23
							c0.07,0.07,0.16,0.16,0.23,0.23c0.07,0.07,0.16,0.16,0.22,0.22s0.15,0.15,0.22,0.22C112.12,50.21,112.2,50.29,112.26,50.36z"
							/>
					</defs>
					<clipPath id="SVGID_42_">
						<use xlink:href="#SVGID_41_"  style="overflow:visible;"/>
					</clipPath>
					<g class="st32">
						<path class="st11" d="M110.74,46.22l1.74,1.74c-0.06,0.76-0.13,1.55-0.22,2.39c-0.21,1.88-0.54,4.16-0.97,6.75l-1.74-1.74
							c0.43-2.6,0.76-4.88,0.97-6.75C110.61,47.77,110.68,46.98,110.74,46.22"/>
					</g>
				</g>
			</g>
			<g>
				<polygon class="st3" points="109.54,55.36 111.29,57.11 72.77,57.11 71.03,55.36 				"/>
			</g>
			<g class="st1">
				<g>
					<defs>
						<path id="SVGID_43_" d="M94.68,81.13c-3.44,0.7-7.03,1.05-10.71,1.05c-0.58-0.58-1.16-1.16-1.74-1.74
							c3.68,0,7.28-0.35,10.71-1.05C93.52,79.96,94.1,80.54,94.68,81.13z"/>
					</defs>
					<clipPath id="SVGID_44_">
						<use xlink:href="#SVGID_43_"  style="overflow:visible;"/>
					</clipPath>
					<g class="st33">
						<path class="st8" d="M102.65,76.32l1.74,1.74c-3.1,1.35-6.36,2.37-9.71,3.06c-3.44,0.7-7.03,1.05-10.71,1.05
							c-8.22,0-14.54-1.98-18.78-5.87c-0.18-0.17-0.36-0.34-0.53-0.51l-1.74-1.74c0.17,0.17,0.35,0.34,0.53,0.51
							c4.24,3.89,10.56,5.87,18.78,5.87c3.68,0,7.28-0.35,10.71-1.05C96.28,78.7,99.55,77.67,102.65,76.32"/>
					</g>
				</g>
			</g>
			<g class="st1">
				<g>
					<defs>
						<path id="SVGID_45_" d="M104.39,78.07c-3.1,1.35-6.36,2.37-9.71,3.06c-0.58-0.58-1.16-1.16-1.74-1.74
							c3.35-0.68,6.61-1.71,9.71-3.06C103.17,76.85,103.87,77.54,104.39,78.07z"/>
					</defs>
					<clipPath id="SVGID_46_">
						<use xlink:href="#SVGID_45_"  style="overflow:visible;"/>
					</clipPath>
					<g class="st34">
						<path class="st8" d="M102.65,76.32l1.74,1.74c-3.1,1.35-6.36,2.37-9.71,3.06c-3.44,0.7-7.03,1.05-10.71,1.05
							c-8.22,0-14.54-1.98-18.78-5.87c-0.18-0.17-0.36-0.34-0.53-0.51l-1.74-1.74c0.17,0.17,0.35,0.34,0.53,0.51
							c4.24,3.89,10.56,5.87,18.78,5.87c3.68,0,7.28-0.35,10.71-1.05C96.28,78.7,99.55,77.67,102.65,76.32"/>
					</g>
				</g>
			</g>
			<g>
				<polygon class="st35" points="104.99,64.04 106.74,65.79 104.39,78.07 102.65,76.32 				"/>
			</g>
			<g>
				<path d="M105.32,26.89c4.34,4.14,6.54,9.69,6.53,16.5c0,1.54-0.12,3.33-0.34,5.33c-0.23,2-0.58,4.43-1.05,7.23l-0.07,0.41H71.87
					c-0.06,0.41-0.12,0.81-0.15,1.18c-0.05,0.5-0.1,1.01-0.13,1.5c0,3.18,1.04,5.53,3.19,7.16c2.17,1.63,5.44,2.46,9.74,2.46
					c3.6,0,7.23-0.53,10.83-1.56c3.59-1.03,6.97-2.55,10.07-4.51l0.97-0.62l-2.87,15.04l-0.23,0.11c-3.24,1.43-6.65,2.52-10.16,3.23
					c-3.5,0.71-7.17,1.08-10.91,1.08c-8.47,0-15.03-2.07-19.46-6.15c-4.45-4.08-6.7-10.13-6.69-17.94
					c0.01-4.81,0.78-9.53,2.27-14.01c1.51-4.51,3.66-8.47,6.4-11.78c2.87-3.49,6.35-6.21,10.33-8.08c3.98-1.86,8.32-2.82,12.9-2.82
					C95.16,20.66,100.99,22.75,105.32,26.89z M110.51,48.61c0.22-1.97,0.34-3.72,0.34-5.23c0.01-6.52-2.09-11.83-6.22-15.78
					c-4.14-3.95-9.74-5.95-16.65-5.95c-4.43,0-8.64,0.91-12.47,2.72c-3.84,1.8-7.2,4.43-9.99,7.81c-2.66,3.21-4.75,7.07-6.21,11.46
					c-1.47,4.39-2.22,8.99-2.23,13.7c-0.01,7.53,2.13,13.32,6.37,17.22c4.24,3.89,10.56,5.87,18.78,5.87
					c3.68,0,7.28-0.35,10.71-1.05c3.35-0.68,6.61-1.71,9.71-3.06l2.34-12.28c-2.91,1.73-6.06,3.08-9.37,4.03
					c-3.68,1.05-7.41,1.59-11.1,1.59c-4.52,0-8-0.9-10.34-2.66c-2.39-1.8-3.59-4.49-3.59-7.99c0.04-0.55,0.07-1.06,0.13-1.57
					c0.05-0.52,0.14-1.07,0.24-1.66l0.07-0.41h38.51C109.98,52.77,110.31,50.49,110.51,48.61"/>
			</g>
			<g>
				<path class="st5" d="M104.63,27.61c4.13,3.95,6.23,9.26,6.22,15.78c0,1.5-0.12,3.26-0.34,5.23c-0.21,1.88-0.54,4.16-0.97,6.75
					H71.03l-0.07,0.41c-0.1,0.59-0.18,1.14-0.24,1.66c-0.05,0.51-0.09,1.03-0.13,1.57c0,3.5,1.2,6.19,3.59,7.99
					c2.34,1.76,5.82,2.66,10.34,2.66c3.69,0,7.42-0.54,11.1-1.59c3.31-0.95,6.46-2.3,9.37-4.03l-2.34,12.28
					c-3.1,1.35-6.36,2.37-9.71,3.06c-3.44,0.7-7.03,1.05-10.71,1.05c-8.22,0-14.54-1.98-18.78-5.87c-4.23-3.89-6.37-9.69-6.37-17.22
					c0.01-4.7,0.76-9.31,2.23-13.7c1.46-4.39,3.55-8.25,6.21-11.46c2.79-3.38,6.15-6.01,9.99-7.81c3.83-1.81,8.04-2.72,12.47-2.72
					C94.89,21.66,100.49,23.66,104.63,27.61z M97.96,43.41c0.05-0.47,0.08-0.93,0.08-1.35c0-3-0.91-5.41-2.73-7.16
					c-1.81-1.74-4.31-2.63-7.44-2.63c-3.49,0-6.51,1.05-9,3.11c-2.47,2.05-4.41,5.14-5.8,9.21l-0.22,0.66h24.34h0.38l0.11-0.36
					C97.81,44.39,97.92,43.9,97.96,43.41"/>
			</g>
			<g>
				<path d="M95.31,34.9c1.82,1.75,2.74,4.16,2.73,7.16c0,0.42-0.03,0.88-0.08,1.35c-0.05,0.49-0.15,0.98-0.29,1.48l-0.11,0.36
					h-0.38H72.85l0.22-0.66c1.39-4.07,3.34-7.16,5.8-9.21c2.49-2.06,5.51-3.11,9-3.11C91,32.28,93.51,33.17,95.31,34.9z M96.98,43.3
					c0.05-0.43,0.07-0.85,0.07-1.24c0-2.72-0.81-4.88-2.43-6.44s-3.89-2.34-6.75-2.34c-3.25,0-6.06,0.96-8.36,2.88
					c-2.19,1.81-3.95,4.53-5.26,8.1h22.56C96.88,43.93,96.94,43.61,96.98,43.3"/>
			</g>
			<g class="st1">
				<g>
					<defs>
						<path id="SVGID_47_" d="M105.69,27.25l1.74,1.74c4.09,4.1,6.17,9.52,6.16,16.14c0,1.54-0.12,3.33-0.34,5.33
							c-0.23,2-0.58,4.43-1.05,7.23l-1.74-1.74c0.47-2.8,0.82-5.23,1.05-7.23c0.22-2.01,0.34-3.8,0.34-5.33
							C111.86,36.77,109.79,31.35,105.69,27.25z"/>
					</defs>
					<clipPath id="SVGID_48_">
						<use xlink:href="#SVGID_47_"  style="overflow:visible;"/>
					</clipPath>
					<g class="st36">
						<path d="M105.69,27.25l1.74,1.74c2.49,2.49,4.23,5.48,5.22,8.92l-1.74-1.74C109.93,32.73,108.19,29.74,105.69,27.25"/>
						<path d="M110.91,36.17l1.74,1.74c0.42,1.48,0.7,3.05,0.84,4.7l-1.74-1.74C111.61,39.22,111.33,37.65,110.91,36.17"/>
						<path d="M111.75,40.87l1.74,1.74c0.07,0.82,0.1,1.66,0.1,2.52c0,0.91-0.04,1.9-0.12,2.98l-1.74-1.74
							c0.08-1.07,0.12-2.07,0.12-2.98C111.85,42.53,111.82,41.69,111.75,40.87"/>
						<path d="M111.73,46.36l1.74,1.74c-0.05,0.75-0.13,1.53-0.22,2.36c-0.23,2-0.58,4.43-1.05,7.23l-1.74-1.74
							c0.47-2.8,0.82-5.23,1.05-7.23C111.6,47.89,111.68,47.11,111.73,46.36"/>
					</g>
				</g>
			</g>
			<g>
				<polygon points="110.39,56.36 112.13,58.11 73.62,58.11 71.87,56.36 				"/>
			</g>
			<g>
				<polygon points="110.46,55.95 112.2,57.69 112.13,58.11 110.39,56.36 				"/>
			</g>
			<g class="st1">
				<g>
					<defs>
						<path id="SVGID_49_" d="M63.93,76.48l-1.74-1.74c0.19,0.19,0.38,0.37,0.58,0.55c4.43,4.08,10.98,6.15,19.46,6.15
							c3.74,0,7.41-0.37,10.91-1.08c3.51-0.71,6.92-1.8,10.16-3.23l1.74,1.74c-3.24,1.43-6.65,2.52-10.16,3.23
							c-3.5,0.71-7.17,1.08-10.91,1.08c-8.47,0-15.03-2.07-19.46-6.15C64.31,76.85,64.12,76.67,63.93,76.48z"/>
					</defs>
					<clipPath id="SVGID_50_">
						<use xlink:href="#SVGID_49_"  style="overflow:visible;"/>
					</clipPath>
					<g class="st37">
						<path d="M103.29,77.13l1.74,1.74c-3.24,1.43-6.65,2.52-10.16,3.23c-3.5,0.71-7.17,1.08-10.91,1.08
							c-8.47,0-15.03-2.07-19.46-6.15c-0.2-0.18-0.39-0.36-0.58-0.55l-1.74-1.74c0.19,0.19,0.38,0.37,0.58,0.55
							c4.43,4.08,10.98,6.15,19.46,6.15c3.74,0,7.41-0.37,10.91-1.08C96.64,79.65,100.05,78.56,103.29,77.13"/>
					</g>
				</g>
			</g>
			<g>
				<polygon points="103.53,77.02 105.27,78.77 105.04,78.88 103.29,77.13 				"/>
			</g>
			<g>
				<polygon points="106.4,61.98 108.14,63.73 105.27,78.77 103.53,77.02 				"/>
			</g>
		</g>
		<g class="st1">
			<g class="st1">
				<g>
					<defs>
						<path id="SVGID_51_" d="M141.13,38.94c-0.17-0.17-0.35-0.35-0.52-0.52c-0.22-0.22-0.44-0.44-0.66-0.66
							c-0.08-0.08-0.17-0.17-0.25-0.25c-0.02-0.02-0.06-0.06-0.08-0.08c-0.05-0.05-0.11-0.11-0.16-0.16
							c-0.02-0.02-0.07-0.04-0.07-0.07c1.81-2.23,3.83-3.61,6.04-4.13c0.58,0.58,1.16,1.16,1.74,1.74
							C144.96,35.33,142.94,36.71,141.13,38.94z"/>
					</defs>
					<clipPath id="SVGID_52_">
						<use xlink:href="#SVGID_51_"  style="overflow:visible;"/>
					</clipPath>
					<g class="st38">
						<path class="st8" d="M153.16,35.11l1.74,1.74c-1.51-1.51-3.43-2.28-5.71-2.28c-3.69,0-6.92,2.21-9.61,6.55l-1.74-1.74
							c2.69-4.34,5.92-6.55,9.61-6.55C149.73,32.83,151.65,33.6,153.16,35.11"/>
					</g>
				</g>
			</g>
			<g class="st1">
				<g>
					<defs>
						<path id="SVGID_53_" d="M147.17,34.81c-0.13-0.13-0.26-0.26-0.39-0.39c-0.24-0.24-0.49-0.49-0.73-0.73
							c-0.15-0.15-0.3-0.3-0.46-0.46c-0.05-0.05-0.14-0.1-0.17-0.17c0.06-0.01,0.11-0.03,0.17-0.04c0.58,0.58,1.16,1.16,1.74,1.74
							C147.28,34.79,147.22,34.8,147.17,34.81z"/>
					</defs>
					<clipPath id="SVGID_54_">
						<use xlink:href="#SVGID_53_"  style="overflow:visible;"/>
					</clipPath>
					<g class="st39">
						<path class="st8" d="M153.16,35.11l1.74,1.74c-1.51-1.51-3.43-2.28-5.71-2.28c-3.69,0-6.92,2.21-9.61,6.55l-1.74-1.74
							c2.69-4.34,5.92-6.55,9.61-6.55C149.73,32.83,151.65,33.6,153.16,35.11"/>
					</g>
				</g>
			</g>
			<g class="st1">
				<g>
					<defs>
						<path id="SVGID_55_" d="M139.05,42.02c-0.45,0.79-0.86,1.6-1.23,2.44c-0.58-0.58-1.16-1.16-1.74-1.75
							c0.37-0.84,0.79-1.66,1.23-2.44C137.89,40.85,138.47,41.44,139.05,42.02c-0.45-0.45-0.9-0.9-1.35-1.35
							c-0.07-0.07-0.14-0.14-0.21-0.21c-0.04-0.04-0.09-0.09-0.13-0.13c-0.01-0.01-0.04-0.03-0.05-0.05
							c0.62-1.09,1.27-2.07,1.95-2.93c0.58,0.58,1.16,1.16,1.74,1.74C140.33,39.95,139.68,40.92,139.05,42.02z"/>
					</defs>
					<clipPath id="SVGID_56_">
						<use xlink:href="#SVGID_55_"  style="overflow:visible;"/>
					</clipPath>
					<g class="st40">
						<path class="st8" d="M153.16,35.11l1.74,1.74c-1.51-1.51-3.43-2.28-5.71-2.28c-3.69,0-6.92,2.21-9.61,6.55l-1.74-1.74
							c2.69-4.34,5.92-6.55,9.61-6.55C149.73,32.83,151.65,33.6,153.16,35.11"/>
						<path class="st4" d="M137.84,39.38l1.74,1.74c-0.18,0.29-0.36,0.59-0.53,0.89c-0.65,1.14-1.22,2.34-1.72,3.6l-1.74-1.74
							c0.5-1.26,1.07-2.46,1.72-3.6C137.48,39.97,137.66,39.67,137.84,39.38"/>
					</g>
				</g>
			</g>
			<g class="st1">
				<g>
					<defs>
						<path id="SVGID_57_" d="M136.8,47.09c-0.58-0.58-1.16-1.16-1.74-1.74c0.3-0.9,0.64-1.78,1.02-2.63
							c0.58,0.58,1.16,1.16,1.74,1.75C137.45,45.31,137.11,46.18,136.8,47.09z"/>
					</defs>
					<clipPath id="SVGID_58_">
						<use xlink:href="#SVGID_57_"  style="overflow:visible;"/>
					</clipPath>
					<g class="st41">
						<path class="st4" d="M137.84,39.38l1.74,1.74c-0.18,0.29-0.36,0.59-0.53,0.89c-0.65,1.14-1.22,2.34-1.72,3.6l-1.74-1.74
							c0.5-1.26,1.07-2.46,1.72-3.6C137.48,39.97,137.66,39.67,137.84,39.38"/>
						<path class="st42" d="M135.59,43.87l1.74,1.74c-0.59,1.51-1.08,3.1-1.46,4.77l-1.74-1.74C134.51,46.97,135,45.38,135.59,43.87
							"/>
					</g>
				</g>
			</g>
			<g class="st1">
				<g>
					<defs>
						<path id="SVGID_59_" d="M136.8,47.09c-0.08,0.23-0.15,0.45-0.22,0.68c-0.58-0.58-1.16-1.16-1.74-1.75
							c0.07-0.23,0.15-0.46,0.22-0.68C135.64,45.92,136.22,46.51,136.8,47.09z"/>
					</defs>
					<clipPath id="SVGID_60_">
						<use xlink:href="#SVGID_59_"  style="overflow:visible;"/>
					</clipPath>
					<g class="st43">
						<path class="st42" d="M135.59,43.87l1.74,1.74c-0.59,1.51-1.08,3.1-1.46,4.77l-1.74-1.74C134.51,46.97,135,45.38,135.59,43.87
							"/>
					</g>
				</g>
			</g>
			<g class="st1">
				<g>
					<defs>
						<path id="SVGID_61_" d="M149.19,34.58c-0.63,0-1.25,0.06-1.86,0.19c-0.33-0.33-0.66-0.66-0.99-0.99
							c-0.22-0.22-0.44-0.44-0.66-0.66c-0.03-0.03-0.1-0.06-0.1-0.1c0.6-0.13,1.22-0.19,1.86-0.19c0.69,0,1.34,0.07,1.96,0.21
							c0.58,0.58,1.16,1.16,1.74,1.74C150.53,34.65,149.88,34.58,149.19,34.58z"/>
					</defs>
					<clipPath id="SVGID_62_">
						<use xlink:href="#SVGID_61_"  style="overflow:visible;"/>
					</clipPath>
					<g class="st44">
						<path class="st8" d="M153.16,35.11l1.74,1.74c-1.51-1.51-3.43-2.28-5.71-2.28c-3.69,0-6.92,2.21-9.61,6.55l-1.74-1.74
							c2.69-4.34,5.92-6.55,9.61-6.55C149.73,32.83,151.65,33.6,153.16,35.11"/>
					</g>
				</g>
			</g>
			<g class="st1">
				<g>
					<defs>
						<path id="SVGID_63_" d="M135.49,52.36c-0.58-0.58-1.16-1.16-1.74-1.74c0.27-1.6,0.63-3.13,1.09-4.59
							c0.58,0.58,1.16,1.16,1.74,1.75C136.13,49.23,135.76,50.76,135.49,52.36z"/>
					</defs>
					<clipPath id="SVGID_64_">
						<use xlink:href="#SVGID_63_"  style="overflow:visible;"/>
					</clipPath>
					<g class="st45">
						<path class="st42" d="M135.59,43.87l1.74,1.74c-0.59,1.51-1.08,3.1-1.46,4.77l-1.74-1.74C134.51,46.97,135,45.38,135.59,43.87
							"/>
						<path class="st11" d="M134.14,48.65l1.74,1.74c-0.42,1.85-0.7,3.8-0.85,5.85l-1.74-1.74
							C133.44,52.45,133.72,50.5,134.14,48.65"/>
					</g>
				</g>
			</g>
			<g class="st1">
				<g>
					<defs>
						<path id="SVGID_65_" d="M134.9,59.69c0,1.03,0.06,2,0.19,2.9c-0.58-0.58-1.16-1.16-1.74-1.74c-0.13-0.9-0.19-1.87-0.19-2.9
							C133.74,58.53,134.32,59.11,134.9,59.69c-0.58-0.58-1.16-1.16-1.74-1.75c0-2.43,0.18-4.74,0.52-6.92
							c0.58,0.58,1.16,1.16,1.74,1.74C135.08,54.95,134.91,57.26,134.9,59.69z"/>
					</defs>
					<clipPath id="SVGID_66_">
						<use xlink:href="#SVGID_65_"  style="overflow:visible;"/>
					</clipPath>
					<g class="st46">
						<path class="st11" d="M134.14,48.65l1.74,1.74c-0.42,1.85-0.7,3.8-0.85,5.85l-1.74-1.74
							C133.44,52.45,133.72,50.5,134.14,48.65"/>
						<path class="st2" d="M133.29,54.49l1.74,1.74c-0.08,1.12-0.12,2.27-0.13,3.45c0,0.66,0.02,1.29,0.08,1.9l-1.74-1.74
							c-0.05-0.61-0.08-1.24-0.08-1.9C133.16,56.77,133.2,55.62,133.29,54.49"/>
						<path class="st18" d="M133.24,59.84l1.74,1.74c0.09,1.1,0.27,2.12,0.53,3.05l-1.74-1.74
							C133.51,61.96,133.33,60.95,133.24,59.84"/>
					</g>
				</g>
			</g>
			<g class="st1">
				<g>
					<defs>
						<path id="SVGID_67_" d="M135.09,62.59c0.03,0.19,0.06,0.38,0.09,0.56c-0.58-0.58-1.16-1.16-1.74-1.74
							c-0.03-0.18-0.06-0.37-0.09-0.56c0.06,0.06,0.14,0.14,0.2,0.2s0.15,0.15,0.22,0.22s0.16,0.16,0.22,0.22
							c0.07,0.07,0.16,0.16,0.23,0.23s0.16,0.16,0.23,0.23c0.07,0.07,0.16,0.16,0.22,0.22c0.03,0.03,0.08,0.08,0.11,0.11
							c0.06,0.06,0.15,0.15,0.21,0.21C135.02,62.52,135.07,62.56,135.09,62.59z"/>
					</defs>
					<clipPath id="SVGID_68_">
						<use xlink:href="#SVGID_67_"  style="overflow:visible;"/>
					</clipPath>
					<g class="st47">
						<path class="st18" d="M133.24,59.84l1.74,1.74c0.09,1.1,0.27,2.12,0.53,3.05l-1.74-1.74
							C133.51,61.96,133.33,60.95,133.24,59.84"/>
					</g>
				</g>
			</g>
			<g class="st1">
				<g>
					<defs>
						<path id="SVGID_69_" d="M137.1,67.96c0.25,0.34,0.51,0.65,0.79,0.93l-1.74-1.74c-0.28-0.28-0.55-0.59-0.79-0.93
							c-0.94-1.27-1.58-2.88-1.92-4.8c0.06,0.06,0.14,0.14,0.2,0.2s0.15,0.15,0.22,0.22s0.16,0.16,0.22,0.22
							c0.07,0.07,0.16,0.16,0.23,0.23c0.29,0.29,0.58,0.58,0.87,0.87C135.51,65.08,136.15,66.69,137.1,67.96z"/>
					</defs>
					<clipPath id="SVGID_70_">
						<use xlink:href="#SVGID_69_"  style="overflow:visible;"/>
					</clipPath>
					<g class="st48">
						<path class="st18" d="M133.24,59.84l1.74,1.74c0.09,1.1,0.27,2.12,0.53,3.05l-1.74-1.74
							C133.51,61.96,133.33,60.95,133.24,59.84"/>
						<path class="st19" d="M133.77,62.89l1.74,1.74c0.36,1.28,0.89,2.39,1.58,3.32c0.25,0.34,0.51,0.65,0.79,0.93l-1.74-1.74
							c-0.28-0.28-0.55-0.59-0.79-0.93C134.66,65.28,134.14,64.17,133.77,62.89"/>
					</g>
				</g>
			</g>
			<g class="st1">
				<g>
					<defs>
						<path id="SVGID_71_" d="M152.45,35.81l1.74,1.74c-1.33-1.33-2.98-1.97-5-1.97c-3.54,0-6.67,2.33-9.27,6.93
							c-2.65,4.69-4.01,10.47-4.01,17.18c0,3.29,0.67,5.87,2,7.67c0.22,0.29,0.45,0.56,0.7,0.81l-1.74-1.74
							c-0.24-0.24-0.48-0.51-0.7-0.81c-1.33-1.8-2-4.38-2-7.67c0.01-6.71,1.36-12.49,4.01-17.18c2.61-4.6,5.73-6.93,9.27-6.93
							C149.48,33.84,151.12,34.49,152.45,35.81z"/>
					</defs>
					<clipPath id="SVGID_72_">
						<use xlink:href="#SVGID_71_"  style="overflow:visible;"/>
					</clipPath>
					<g class="st49">
						<path d="M152.45,35.81l1.74,1.74c-1.33-1.33-2.98-1.97-5-1.97c-3.32,0-6.27,2.04-8.77,6.07l-1.74-1.74
							c2.5-4.03,5.45-6.07,8.77-6.07C149.48,33.84,151.12,34.49,152.45,35.81"/>
						<path d="M138.68,39.91l1.74,1.74c-0.17,0.28-0.34,0.56-0.51,0.86c-0.62,1.09-1.16,2.24-1.64,3.45l-1.74-1.74
							c0.48-1.21,1.02-2.36,1.64-3.45C138.34,40.47,138.51,40.19,138.68,39.91"/>
						<path d="M136.53,44.22l1.74,1.74c-0.58,1.47-1.05,3.02-1.42,4.65l-1.74-1.74C135.48,47.24,135.95,45.69,136.53,44.22"/>
						<path d="M135.11,48.87l1.74,1.74c-0.41,1.81-0.68,3.71-0.83,5.71l-1.74-1.74C134.43,52.58,134.71,50.68,135.11,48.87"/>
						<path d="M134.28,54.58l1.74,1.74c-0.08,1.09-0.12,2.22-0.12,3.37c0,0.63,0.02,1.24,0.07,1.81l-1.74-1.74
							c-0.05-0.58-0.07-1.18-0.07-1.81C134.16,56.8,134.2,55.67,134.28,54.58"/>
						<path d="M134.23,59.76l1.74,1.74c0.09,1.04,0.25,1.99,0.5,2.85l-1.74-1.74C134.49,61.75,134.32,60.8,134.23,59.76"/>
						<path d="M134.73,62.61l1.74,1.74c0.33,1.17,0.81,2.17,1.42,3.01c0.22,0.29,0.45,0.56,0.7,0.81l-1.74-1.74
							c-0.24-0.24-0.48-0.51-0.7-0.81C135.54,64.78,135.06,63.78,134.73,62.61"/>
					</g>
				</g>
			</g>
			<g class="st1">
				<g>
					<defs>
						<path id="SVGID_73_" d="M141.13,38.94c-0.04,0.05-0.08,0.1-0.12,0.15c-0.33-0.33-0.66-0.66-0.99-0.99
							c-0.03-0.03-0.08-0.08-0.11-0.11c-0.07-0.07-0.16-0.16-0.22-0.22c-0.03-0.03-0.08-0.08-0.11-0.11
							c-0.06-0.06-0.15-0.15-0.21-0.21c-0.03-0.03-0.1-0.06-0.1-0.1c0.04-0.05,0.08-0.1,0.12-0.15
							C139.97,37.78,140.55,38.36,141.13,38.94z"/>
					</defs>
					<clipPath id="SVGID_74_">
						<use xlink:href="#SVGID_73_"  style="overflow:visible;"/>
					</clipPath>
					<g class="st50">
						<path class="st8" d="M153.16,35.11l1.74,1.74c-1.51-1.51-3.43-2.28-5.71-2.28c-3.69,0-6.92,2.21-9.61,6.55l-1.74-1.74
							c2.69-4.34,5.92-6.55,9.61-6.55C149.73,32.83,151.65,33.6,153.16,35.11"/>
					</g>
				</g>
			</g>
			<g>
				<polygon points="179.3,1 181.04,2.75 167.19,2.75 165.45,1 				"/>
			</g>
			<g>
				<polygon points="180.52,0 182.26,1.75 182.14,2.34 180.4,0.6 				"/>
			</g>
			<g class="st1">
				<g>
					<defs>
						<path id="SVGID_75_" d="M135.49,52.36c-0.02,0.14-0.05,0.27-0.07,0.41c-0.58-0.58-1.16-1.16-1.74-1.74
							c0.02-0.14,0.04-0.27,0.07-0.41c0.02,0.02,0.06,0.06,0.08,0.08c0.03,0.03,0.06,0.06,0.08,0.08c0.03,0.03,0.06,0.06,0.09,0.09
							s0.06,0.06,0.09,0.09s0.06,0.06,0.09,0.09s0.06,0.06,0.09,0.09s0.06,0.06,0.08,0.08s0.06,0.06,0.08,0.08
							c0.04,0.04,0.09,0.09,0.12,0.12c0.04,0.04,0.09,0.09,0.13,0.13c0.04,0.04,0.1,0.1,0.14,0.14s0.1,0.1,0.14,0.14
							s0.1,0.1,0.14,0.14s0.1,0.1,0.14,0.14s0.09,0.09,0.13,0.13C135.41,52.27,135.46,52.32,135.49,52.36z"/>
					</defs>
					<clipPath id="SVGID_76_">
						<use xlink:href="#SVGID_75_"  style="overflow:visible;"/>
					</clipPath>
					<g class="st51">
						<path class="st11" d="M134.14,48.65l1.74,1.74c-0.42,1.85-0.7,3.8-0.85,5.85l-1.74-1.74
							C133.44,52.45,133.72,50.5,134.14,48.65"/>
					</g>
				</g>
			</g>
			<g class="st1">
				<g>
					<defs>
						<path id="SVGID_77_" d="M154.9,36.86c-1.05-1.05-2.31-1.75-3.75-2.07c-0.33-0.33-0.66-0.66-0.99-0.99
							c-0.11-0.11-0.23-0.23-0.34-0.34s-0.21-0.21-0.32-0.32c-0.03-0.03-0.1-0.06-0.1-0.1c1.44,0.32,2.69,1.01,3.75,2.07
							C153.68,35.63,154.38,36.33,154.9,36.86z"/>
					</defs>
					<clipPath id="SVGID_78_">
						<use xlink:href="#SVGID_77_"  style="overflow:visible;"/>
					</clipPath>
					<g class="st52">
						<path class="st8" d="M153.16,35.11l1.74,1.74c-1.51-1.51-3.43-2.28-5.71-2.28c-3.69,0-6.92,2.21-9.61,6.55l-1.74-1.74
							c2.69-4.34,5.92-6.55,9.61-6.55C149.73,32.83,151.65,33.6,153.16,35.11"/>
					</g>
				</g>
			</g>
			<g class="st1">
				<g>
					<defs>
						<path id="SVGID_79_" d="M156.22,27.08c2.01,2.01,3.25,4.69,3.69,7.97l-1.74-1.74c-0.44-3.28-1.68-5.96-3.69-7.97
							C155,25.86,155.69,26.56,156.22,27.08z"/>
					</defs>
					<clipPath id="SVGID_80_">
						<use xlink:href="#SVGID_79_"  style="overflow:visible;"/>
					</clipPath>
					<g class="st53">
						<path class="st19" d="M154.47,25.34l1.74,1.74c1.5,1.5,2.57,3.37,3.2,5.58l-1.74-1.75C157.04,28.7,155.97,26.83,154.47,25.34"
							/>
						<path class="st18" d="M157.67,30.91l1.74,1.74c0.22,0.76,0.38,1.55,0.49,2.39l-1.74-1.74
							C158.05,32.47,157.88,31.67,157.67,30.91"/>
					</g>
				</g>
			</g>
			<g class="st1">
				<g>
					<defs>
						<path id="SVGID_81_" d="M155.19,24.64l1.74,1.74c1.63,1.63,2.78,3.65,3.46,6.04l-1.74-1.74
							C157.97,28.29,156.82,26.27,155.19,24.64z"/>
					</defs>
					<clipPath id="SVGID_82_">
						<use xlink:href="#SVGID_81_"  style="overflow:visible;"/>
					</clipPath>
					<g class="st54">
						<path d="M155.19,24.64l1.74,1.74c1.62,1.63,2.78,3.64,3.45,6.03l-1.74-1.74C157.97,28.29,156.82,26.27,155.19,24.64"/>
						<polyline points="158.65,30.67 160.39,32.42 160.39,32.43 158.65,30.68 158.65,30.67 						"/>
					</g>
				</g>
			</g>
			<g>
				<polygon class="st55" points="158.16,33.3 159.9,35.05 160.31,38.06 158.57,36.31 				"/>
			</g>
			<g>
				<polygon points="165.45,1 167.19,2.75 160.31,38.06 158.57,36.31 				"/>
			</g>
			<g class="st1">
				<g>
					<defs>
						<path id="SVGID_83_" d="M154.47,25.34l1.74,1.74c-0.2-0.2-0.41-0.39-0.62-0.58c-2.38-2.06-5.44-3.09-9.08-3.09
							c-3.84,0-7.54,1.21-10.99,3.61c-3.47,2.42-6.4,5.81-8.69,10.08c-1.87,3.56-3.35,7.55-4.38,11.83
							c-1.05,4.29-1.58,8.64-1.58,12.95c-0.01,6.29,1.42,11.31,4.22,14.91c0.4,0.51,0.82,0.99,1.26,1.43l-1.74-1.74
							c-0.44-0.44-0.86-0.92-1.26-1.43c-2.8-3.61-4.23-8.63-4.22-14.91c0.01-4.31,0.53-8.66,1.58-12.95
							c1.03-4.28,2.51-8.27,4.38-11.83c2.29-4.27,5.22-7.66,8.69-10.08c3.45-2.39,7.15-3.61,10.99-3.61c3.64,0,6.7,1.03,9.08,3.09
							C154.07,24.94,154.27,25.14,154.47,25.34z"/>
					</defs>
					<clipPath id="SVGID_84_">
						<use xlink:href="#SVGID_83_"  style="overflow:visible;"/>
					</clipPath>
					<g class="st56">
						<path d="M154.47,25.34l1.74,1.74c-0.2-0.2-0.41-0.39-0.62-0.58c-2.38-2.06-5.44-3.09-9.08-3.09c-3.84,0-7.54,1.21-10.99,3.61
							c-2.94,2.05-5.5,4.8-7.6,8.19l-1.74-1.74c2.1-3.39,4.65-6.14,7.6-8.19c3.45-2.39,7.15-3.61,10.99-3.61
							c3.64,0,6.7,1.03,9.08,3.09C154.07,24.94,154.27,25.14,154.47,25.34"/>
						<path d="M126.19,33.46l1.74,1.74c-0.38,0.61-0.74,1.24-1.09,1.89c-0.78,1.48-1.49,3.04-2.13,4.66l-1.74-1.74
							c0.64-1.62,1.35-3.18,2.13-4.66C125.44,34.7,125.81,34.07,126.19,33.46"/>
						<path d="M122.97,40.01l1.74,1.74c-0.89,2.27-1.65,4.67-2.25,7.16c-0.08,0.33-0.16,0.66-0.23,0.99l-1.74-1.74
							c0.07-0.33,0.15-0.66,0.23-0.99C121.32,44.68,122.07,42.29,122.97,40.01"/>
						<path d="M120.48,48.17l1.74,1.74c-0.6,2.68-1.01,5.39-1.2,8.09l-1.74-1.74C119.48,53.55,119.88,50.85,120.48,48.17"/>
						<path d="M119.28,56.25l1.74,1.74c-0.1,1.29-0.14,2.59-0.14,3.88c0,1.1,0.04,2.16,0.13,3.18l-1.74-1.74
							c-0.09-1.02-0.13-2.08-0.13-3.18C119.14,58.84,119.19,57.55,119.28,56.25"/>
						<path d="M119.26,63.32l1.74,1.74c0.16,1.91,0.47,3.68,0.94,5.3l-1.74-1.74C119.74,66.99,119.42,65.22,119.26,63.32"/>
						<path d="M120.2,68.62l1.74,1.74c0.71,2.48,1.76,4.63,3.16,6.43c0.4,0.51,0.82,0.99,1.26,1.43l-1.74-1.74
							c-0.44-0.44-0.86-0.92-1.26-1.43C121.96,73.25,120.9,71.1,120.2,68.62"/>
					</g>
				</g>
			</g>
			<g class="st1">
				<g>
					<defs>
						<path id="SVGID_85_" d="M153.16,35.11l1.74,1.74c0.29,0.29,0.56,0.6,0.82,0.94c1.58,2.1,2.39,4.98,2.38,8.6
							c-0.01,6.75-1.47,12.59-4.34,17.33c-2.91,4.83-6.43,7.28-10.45,7.28c-2.19,0-4.01-0.71-5.42-2.12l-1.74-1.74
							c1.41,1.41,3.23,2.12,5.42,2.12c4.02,0,7.54-2.45,10.45-7.28c2.87-4.74,4.33-10.58,4.34-17.33c0-3.62-0.8-6.5-2.38-8.6
							C153.72,35.71,153.44,35.4,153.16,35.11z"/>
					</defs>
					<clipPath id="SVGID_86_">
						<use xlink:href="#SVGID_85_"  style="overflow:visible;"/>
					</clipPath>
					<g class="st57">
						<path d="M153.16,35.11l1.74,1.74c0.29,0.29,0.56,0.6,0.82,0.94c0.77,1.03,1.36,2.25,1.76,3.65l-1.74-1.74
							c-0.4-1.4-0.99-2.62-1.76-3.65C153.72,35.71,153.44,35.4,153.16,35.11"/>
						<path d="M155.74,39.7l1.74,1.74c0.27,0.95,0.45,1.98,0.55,3.09l-1.74-1.74C156.19,41.68,156.01,40.65,155.74,39.7"/>
						<path d="M156.28,42.79l1.74,1.74c0.05,0.6,0.08,1.22,0.07,1.86c0,1.08-0.04,2.14-0.12,3.18l-1.74-1.74
							c0.08-1.03,0.11-2.09,0.12-3.18C156.36,44.01,156.33,43.39,156.28,42.79"/>
						<path d="M156.24,47.83l1.74,1.74c-0.14,1.91-0.41,3.74-0.8,5.47l-1.74-1.74C155.83,51.56,156.1,49.74,156.24,47.83"/>
						<path d="M155.44,53.3l1.74,1.74c-0.36,1.6-0.82,3.12-1.39,4.57l-1.74-1.74C154.62,56.42,155.08,54.9,155.44,53.3"/>
						<path d="M154.05,57.87l1.74,1.74c-0.57,1.45-1.25,2.82-2.03,4.12c-0.06,0.09-0.11,0.18-0.17,0.27l-1.74-1.74
							c0.06-0.09,0.11-0.18,0.17-0.27C152.8,60.69,153.48,59.32,154.05,57.87"/>
						<path d="M151.85,62.26l1.74,1.74c-2.88,4.65-6.34,7-10.28,7c-2.19,0-4.01-0.71-5.42-2.12l-1.74-1.74
							c1.41,1.41,3.23,2.12,5.42,2.12C145.51,69.26,148.97,66.91,151.85,62.26"/>
					</g>
				</g>
			</g>
			<g>
				<polygon class="st8" points="152.18,68.81 153.92,70.56 152.58,72.5 150.84,70.75 				"/>
			</g>
			<g class="st1">
				<g>
					<defs>
						<path id="SVGID_87_" d="M136.44,82.18c-4.08,0-7.46-1.33-10.09-3.96l-1.74-1.74c2.63,2.63,6.01,3.96,10.09,3.96
							C135.28,81.01,135.86,81.6,136.44,82.18c-0.58-0.58-1.16-1.16-1.74-1.74c3.11,0,6.05-0.82,8.75-2.44
							c0.58,0.58,1.16,1.16,1.74,1.74c-0.58-0.58-1.16-1.16-1.74-1.74c2.72-1.63,5.2-4.07,7.38-7.24l1.74,1.74
							c-2.18,3.18-4.67,5.61-7.38,7.24C142.5,81.36,139.55,82.18,136.44,82.18z"/>
					</defs>
					<clipPath id="SVGID_88_">
						<use xlink:href="#SVGID_87_"  style="overflow:visible;"/>
					</clipPath>
					<g class="st58">
						<path class="st8" d="M150.84,70.75l1.74,1.74c-2.18,3.18-4.67,5.61-7.38,7.24c-2.7,1.62-5.64,2.44-8.75,2.44
							c-4.08,0-7.46-1.33-10.09-3.96l-1.74-1.74c2.63,2.63,6.01,3.96,10.09,3.96c3.11,0,6.05-0.82,8.75-2.44
							C146.17,76.37,148.66,73.93,150.84,70.75"/>
					</g>
				</g>
			</g>
			<g class="st1">
				<g>
					<defs>
						<path id="SVGID_89_" d="M125.66,78.95l-1.74-1.74c2.82,2.82,6.43,4.24,10.78,4.24c3.29,0,6.41-0.87,9.27-2.59
							c2.31-1.39,4.46-3.32,6.39-5.76l1.74,1.74c-1.94,2.44-4.08,4.37-6.39,5.76c-2.86,1.72-5.98,2.59-9.27,2.59
							C132.09,83.19,128.48,81.76,125.66,78.95z"/>
					</defs>
					<clipPath id="SVGID_90_">
						<use xlink:href="#SVGID_89_"  style="overflow:visible;"/>
					</clipPath>
					<g class="st59">
						<path d="M150.36,73.09l1.74,1.74c-1.94,2.44-4.08,4.37-6.39,5.76c-2.86,1.72-5.98,2.59-9.27,2.59
							c-4.35,0-7.96-1.42-10.78-4.24l-1.74-1.74c2.82,2.82,6.43,4.24,10.78,4.24c3.29,0,6.41-0.87,9.27-2.59
							C146.28,77.46,148.42,75.53,150.36,73.09"/>
					</g>
				</g>
			</g>
			<g>
				<polygon points="152.18,68.81 153.92,70.56 152.01,80.71 150.27,78.97 				"/>
			</g>
			<g>
				<path class="st5" d="M165.45,1h13.85l-15.28,77.96h-13.75l1.91-10.15l-1.34,1.94c-2.18,3.18-4.67,5.61-7.38,7.24
					c-2.7,1.62-5.64,2.44-8.75,2.44c-4.76,0-8.57-1.81-11.34-5.39c-2.8-3.61-4.23-8.63-4.22-14.91c0.01-4.31,0.53-8.66,1.58-12.95
					c1.03-4.28,2.51-8.27,4.38-11.83c2.29-4.27,5.22-7.66,8.69-10.08c3.45-2.39,7.15-3.61,10.99-3.61c3.64,0,6.7,1.03,9.08,3.09
					c2.37,2.06,3.83,4.94,4.31,8.54l0.41,3.01L165.45,1z M152.02,61.98c2.87-4.74,4.33-10.58,4.34-17.33c0-3.62-0.8-6.5-2.38-8.6
					c-1.61-2.13-3.81-3.22-6.53-3.22c-3.93,0-7.34,2.51-10.14,7.44c-2.75,4.84-4.14,10.78-4.15,17.67c0,3.51,0.73,6.3,2.19,8.27
					c1.49,2.02,3.59,3.05,6.21,3.05C145.59,69.26,149.11,66.81,152.02,61.98"/>
			</g>
			<g>
				<polygon class="st60" points="179.3,1 181.04,2.75 165.77,80.71 164.02,78.97 				"/>
			</g>
			<g>
				<polygon class="st3" points="164.02,78.97 165.77,80.71 152.01,80.71 150.27,78.97 				"/>
			</g>
			<g>
				<path d="M164.63,0h15.88l-0.12,0.59l-15.55,79.37h-15.78l1.29-6.87c-1.94,2.44-4.08,4.37-6.39,5.76
					c-2.86,1.72-5.98,2.59-9.27,2.59c-5.08,0-9.16-1.94-12.14-5.78c-2.95-3.79-4.43-9.01-4.42-15.52c0.01-4.39,0.54-8.82,1.61-13.19
					c1.06-4.36,2.56-8.43,4.47-12.06c2.37-4.42,5.4-7.92,9-10.43c3.63-2.52,7.52-3.8,11.56-3.8c3.89,0,7.17,1.12,9.73,3.35
					c1.99,1.73,3.38,3.97,4.15,6.68L164.63,0z M164.02,78.97L179.3,1h-13.85l-6.88,35.31l-0.41-3.01c-0.48-3.61-1.93-6.49-4.31-8.54
					c-2.38-2.06-5.44-3.09-9.08-3.09c-3.84,0-7.54,1.21-10.99,3.61c-3.47,2.42-6.4,5.81-8.69,10.08c-1.87,3.56-3.35,7.55-4.38,11.83
					c-1.05,4.29-1.58,8.64-1.58,12.95c-0.01,6.29,1.42,11.31,4.22,14.91c2.77,3.58,6.59,5.39,11.34,5.39c3.11,0,6.05-0.82,8.75-2.44
					c2.72-1.63,5.2-4.07,7.38-7.24l1.34-1.94l-1.91,10.15H164.02"/>
			</g>
			<g>
				<path d="M147.45,32.83c2.72,0,4.92,1.09,6.53,3.22c1.58,2.1,2.39,4.98,2.38,8.6c-0.01,6.75-1.47,12.59-4.34,17.33
					c-2.91,4.83-6.43,7.28-10.45,7.28c-2.63,0-4.72-1.03-6.21-3.05c-1.46-1.97-2.2-4.76-2.19-8.27c0.01-6.89,1.4-12.84,4.15-17.67
					C140.11,35.34,143.52,32.83,147.45,32.83z M151.16,61.47c2.78-4.59,4.18-10.24,4.18-16.82c0-3.39-0.72-6.08-2.17-8
					c-1.44-1.9-3.32-2.82-5.74-2.82c-3.54,0-6.67,2.33-9.27,6.93c-2.65,4.69-4.01,10.47-4.01,17.18c0,3.29,0.67,5.87,2,7.67
					c1.32,1.77,3.08,2.64,5.41,2.64C145.22,68.25,148.45,65.98,151.16,61.47"/>
			</g>
			<g>
				<polygon points="164.85,79.96 166.59,81.71 150.82,81.71 149.07,79.96 				"/>
			</g>
			<g>
				<polygon points="180.4,0.6 182.14,2.34 166.59,81.71 164.85,79.96 				"/>
			</g>
		</g>
		<g class="st1">
			<g class="st1">
				<g>
					<defs>
						<path id="SVGID_91_" d="M209.73,34.81c-1.96,0.46-3.78,1.61-5.43,3.42c-0.33-0.33-0.66-0.66-0.99-0.99
							c-0.07-0.07-0.16-0.16-0.23-0.23c-0.03-0.03-0.08-0.08-0.11-0.11c-0.06-0.06-0.15-0.15-0.22-0.22
							c-0.06-0.06-0.17-0.12-0.2-0.2c1.65-1.82,3.47-2.96,5.43-3.42C208.57,33.65,209.15,34.23,209.73,34.81z"/>
					</defs>
					<clipPath id="SVGID_92_">
						<use xlink:href="#SVGID_91_"  style="overflow:visible;"/>
					</clipPath>
					<g class="st61">
						<path class="st8" d="M215.74,35.12l1.74,1.74c-1.51-1.51-3.43-2.28-5.72-2.28c-3.69,0-6.92,2.21-9.61,6.55l-1.74-1.74
							c2.69-4.34,5.92-6.55,9.61-6.55C212.31,32.83,214.22,33.6,215.74,35.12"/>
					</g>
				</g>
			</g>
			<g class="st1">
				<g>
					<defs>
						<path id="SVGID_93_" d="M209.73,34.81c-0.13-0.13-0.26-0.26-0.39-0.39c-0.24-0.24-0.49-0.49-0.73-0.73
							c-0.12-0.12-0.25-0.25-0.37-0.37c-0.03-0.03-0.06-0.06-0.09-0.09c-0.05-0.05-0.14-0.1-0.17-0.17
							c0.06-0.01,0.11-0.03,0.17-0.04c0.58,0.58,1.16,1.16,1.74,1.74C209.84,34.79,209.79,34.8,209.73,34.81z"/>
					</defs>
					<clipPath id="SVGID_94_">
						<use xlink:href="#SVGID_93_"  style="overflow:visible;"/>
					</clipPath>
					<g class="st62">
						<path class="st8" d="M215.74,35.12l1.74,1.74c-1.51-1.51-3.43-2.28-5.72-2.28c-3.69,0-6.92,2.21-9.61,6.55l-1.74-1.74
							c2.69-4.34,5.92-6.55,9.61-6.55C212.31,32.83,214.22,33.6,215.74,35.12"/>
					</g>
				</g>
			</g>
			<g class="st1">
				<g>
					<defs>
						<path id="SVGID_95_" d="M199.36,47.13c-0.58-0.58-1.16-1.16-1.74-1.74c0.61-1.82,1.36-3.52,2.26-5.11
							c0.58,0.58,1.16,1.16,1.74,1.74c-0.45-0.45-0.9-0.9-1.35-1.35c-0.07-0.07-0.14-0.14-0.21-0.21c-0.02-0.02-0.04-0.04-0.05-0.05
							c-0.03-0.03-0.05-0.05-0.08-0.08c-0.01-0.01-0.04-0.03-0.05-0.05c0.38-0.67,0.77-1.29,1.17-1.87
							c0.58,0.58,1.16,1.16,1.74,1.75c-0.4,0.58-0.79,1.2-1.17,1.87C200.72,43.6,199.97,45.31,199.36,47.13z"/>
					</defs>
					<clipPath id="SVGID_96_">
						<use xlink:href="#SVGID_95_"  style="overflow:visible;"/>
					</clipPath>
					<g class="st63">
						<path class="st8" d="M215.74,35.12l1.74,1.74c-1.51-1.51-3.43-2.28-5.72-2.28c-3.69,0-6.92,2.21-9.61,6.55l-1.74-1.74
							c2.69-4.34,5.92-6.55,9.61-6.55C212.31,32.83,214.22,33.6,215.74,35.12"/>
						<path class="st4" d="M200.41,39.38l1.74,1.74c-0.18,0.29-0.36,0.59-0.53,0.89c-0.64,1.14-1.21,2.34-1.71,3.59l-1.74-1.74
							c0.5-1.26,1.07-2.46,1.71-3.59C200.05,39.97,200.23,39.67,200.41,39.38"/>
						<path class="st42" d="M198.17,43.87l1.74,1.74c-0.6,1.51-1.09,3.11-1.46,4.8l-1.74-1.74
							C197.08,46.98,197.57,45.38,198.17,43.87"/>
					</g>
				</g>
			</g>
			<g class="st1">
				<g>
					<defs>
						<path id="SVGID_97_" d="M211.76,34.58c-0.63,0-1.25,0.06-1.86,0.19c-0.33-0.33-0.66-0.66-0.99-0.99
							c-0.15-0.15-0.3-0.3-0.45-0.45c-0.06-0.06-0.15-0.15-0.21-0.21c-0.03-0.03-0.1-0.06-0.1-0.1c0.6-0.13,1.22-0.19,1.86-0.19
							c0.39,0,0.76,0.02,1.13,0.07c0.58,0.58,1.16,1.16,1.74,1.74C212.52,34.6,212.14,34.58,211.76,34.58z"/>
					</defs>
					<clipPath id="SVGID_98_">
						<use xlink:href="#SVGID_97_"  style="overflow:visible;"/>
					</clipPath>
					<g class="st64">
						<path class="st8" d="M215.74,35.12l1.74,1.74c-1.51-1.51-3.43-2.28-5.72-2.28c-3.69,0-6.92,2.21-9.61,6.55l-1.74-1.74
							c2.69-4.34,5.92-6.55,9.61-6.55C212.31,32.83,214.22,33.6,215.74,35.12"/>
					</g>
				</g>
			</g>
			<g class="st1">
				<g>
					<defs>
						<path id="SVGID_99_" d="M213.72,34.79c-0.27-0.06-0.55-0.11-0.84-0.14c-0.58-0.58-1.16-1.16-1.74-1.74
							c0.29,0.03,0.57,0.08,0.84,0.14C212.56,33.62,213.14,34.21,213.72,34.79z"/>
					</defs>
					<clipPath id="SVGID_100_">
						<use xlink:href="#SVGID_99_"  style="overflow:visible;"/>
					</clipPath>
					<g class="st65">
						<path class="st8" d="M215.74,35.12l1.74,1.74c-1.51-1.51-3.43-2.28-5.72-2.28c-3.69,0-6.92,2.21-9.61,6.55l-1.74-1.74
							c2.69-4.34,5.92-6.55,9.61-6.55C212.31,32.83,214.22,33.6,215.74,35.12"/>
					</g>
				</g>
			</g>
			<g class="st1">
				<g>
					<defs>
						<path id="SVGID_101_" d="M199.36,47.13c-0.47,1.42-0.86,2.9-1.16,4.46c-0.58-0.58-1.16-1.16-1.74-1.74
							c0.3-1.55,0.68-3.04,1.16-4.46c0.04,0.04,0.1,0.1,0.14,0.14s0.1,0.1,0.15,0.15c0.05,0.05,0.11,0.11,0.15,0.15
							c0.05,0.05,0.11,0.11,0.15,0.15c0.05,0.05,0.11,0.11,0.15,0.15c0.05,0.05,0.11,0.11,0.15,0.15s0.1,0.1,0.15,0.15
							c0.04,0.04,0.1,0.1,0.14,0.14c0.02,0.02,0.05,0.05,0.07,0.07s0.05,0.05,0.07,0.07s0.05,0.05,0.07,0.07s0.05,0.05,0.07,0.07
							s0.05,0.05,0.07,0.07s0.05,0.05,0.07,0.07s0.05,0.05,0.07,0.07C199.31,47.08,199.34,47.1,199.36,47.13z"/>
					</defs>
					<clipPath id="SVGID_102_">
						<use xlink:href="#SVGID_101_"  style="overflow:visible;"/>
					</clipPath>
					<g class="st66">
						<path class="st42" d="M198.17,43.87l1.74,1.74c-0.6,1.51-1.09,3.11-1.46,4.8l-1.74-1.74
							C197.08,46.98,197.57,45.38,198.17,43.87"/>
						<path class="st11" d="M196.7,48.66l1.74,1.74c-0.42,1.85-0.7,3.8-0.85,5.85l-1.74-1.74C196,52.46,196.29,50.51,196.7,48.66"/>
					</g>
				</g>
			</g>
			<g class="st1">
				<g>
					<defs>
						<path id="SVGID_103_" d="M198.06,52.35c-0.58-0.58-1.16-1.16-1.74-1.74c0.04-0.26,0.09-0.51,0.14-0.77
							c0.06,0.06,0.14,0.14,0.2,0.2s0.15,0.15,0.22,0.22s0.16,0.16,0.22,0.22c0.07,0.07,0.16,0.16,0.23,0.23
							c0.07,0.07,0.16,0.16,0.23,0.23c0.07,0.07,0.16,0.16,0.22,0.22s0.15,0.15,0.22,0.22c0.06,0.06,0.14,0.14,0.2,0.2
							C198.15,51.84,198.11,52.09,198.06,52.35z"/>
					</defs>
					<clipPath id="SVGID_104_">
						<use xlink:href="#SVGID_103_"  style="overflow:visible;"/>
					</clipPath>
					<g class="st67">
						<path class="st11" d="M196.7,48.66l1.74,1.74c-0.42,1.85-0.7,3.8-0.85,5.85l-1.74-1.74C196,52.46,196.29,50.51,196.7,48.66"/>
					</g>
				</g>
			</g>
			<g class="st1">
				<g>
					<defs>
						<path id="SVGID_105_" d="M199.66,67.96c0.25,0.33,0.51,0.64,0.79,0.92l-1.74-1.74c-0.28-0.28-0.54-0.59-0.79-0.92
							C198.5,66.79,199.08,67.38,199.66,67.96c-0.58-0.58-1.16-1.16-1.74-1.75c-1.45-1.97-2.2-4.75-2.19-8.27
							c0.58,0.58,1.16,1.16,1.74,1.74c-0.58-0.58-1.16-1.16-1.74-1.74c0-2.58,0.2-5.03,0.59-7.34c0.58,0.58,1.16,1.16,1.74,1.74
							c-0.39,2.31-0.59,4.76-0.59,7.34C197.47,63.21,198.21,65.99,199.66,67.96L199.66,67.96z"/>
					</defs>
					<clipPath id="SVGID_106_">
						<use xlink:href="#SVGID_105_"  style="overflow:visible;"/>
					</clipPath>
					<g class="st68">
						<path class="st11" d="M196.7,48.66l1.74,1.74c-0.42,1.85-0.7,3.8-0.85,5.85l-1.74-1.74C196,52.46,196.29,50.51,196.7,48.66"/>
						<path class="st2" d="M195.85,54.51l1.74,1.74c-0.08,1.12-0.12,2.26-0.13,3.44c0,0.66,0.02,1.28,0.08,1.89l-1.74-1.74
							c-0.05-0.6-0.08-1.23-0.08-1.89C195.73,56.77,195.77,55.63,195.85,54.51"/>
						<path class="st18" d="M195.8,59.83l1.74,1.74c0.09,1.1,0.27,2.12,0.54,3.05l-1.74-1.74C196.07,61.95,195.89,60.94,195.8,59.83
							"/>
						<path class="st19" d="M196.34,62.88l1.74,1.74c0.37,1.29,0.89,2.4,1.58,3.33c0.25,0.33,0.51,0.64,0.79,0.92l-1.74-1.74
							c-0.28-0.28-0.54-0.59-0.79-0.92C197.23,65.28,196.7,64.17,196.34,62.88"/>
					</g>
				</g>
			</g>
			<g class="st1">
				<g>
					<defs>
						<path id="SVGID_107_" d="M215.01,35.8l1.74,1.74c-1.32-1.32-2.97-1.96-5-1.96c-3.54,0-6.66,2.33-9.26,6.93
							c-2.66,4.69-4.02,10.47-4.02,17.18c0,3.29,0.68,5.87,2.01,7.67c0.22,0.3,0.45,0.57,0.7,0.81l-1.74-1.74
							c-0.25-0.25-0.48-0.52-0.7-0.81c-1.33-1.8-2.01-4.38-2.01-7.67c0.01-6.71,1.36-12.49,4.02-17.18c2.6-4.6,5.72-6.93,9.26-6.93
							C212.04,33.84,213.69,34.48,215.01,35.8z"/>
					</defs>
					<clipPath id="SVGID_108_">
						<use xlink:href="#SVGID_107_"  style="overflow:visible;"/>
					</clipPath>
					<g class="st69">
						<path d="M215.01,35.8l1.74,1.74c-1.32-1.32-2.97-1.96-5-1.96c-3.32,0-6.26,2.04-8.75,6.07l-1.74-1.74
							c2.5-4.03,5.44-6.07,8.75-6.07C212.04,33.84,213.69,34.48,215.01,35.8"/>
						<path d="M201.26,39.91l1.74,1.74c-0.17,0.28-0.34,0.56-0.51,0.86c-0.62,1.1-1.18,2.26-1.66,3.48l-1.74-1.74
							c0.48-1.22,1.03-2.38,1.66-3.48C200.92,40.47,201.09,40.18,201.26,39.91"/>
						<path d="M199.09,44.24l1.74,1.74c-0.58,1.46-1.05,3.01-1.42,4.64l-1.74-1.74C198.04,47.26,198.52,45.71,199.09,44.24"/>
						<path d="M197.68,48.89l1.74,1.74c-0.41,1.8-0.68,3.7-0.83,5.7l-1.74-1.74C196.99,52.59,197.27,50.69,197.68,48.89"/>
						<path d="M196.85,54.58l1.74,1.74c-0.08,1.09-0.12,2.22-0.12,3.36c0,0.62,0.02,1.22,0.07,1.8l-1.74-1.74
							c-0.05-0.57-0.07-1.17-0.07-1.8C196.73,56.8,196.77,55.68,196.85,54.58"/>
						<path d="M196.8,59.74l1.74,1.74c0.09,1.04,0.25,1.99,0.5,2.85l-1.74-1.74C197.05,61.73,196.88,60.78,196.8,59.74"/>
						<path d="M197.3,62.59l1.74,1.74c0.33,1.17,0.81,2.19,1.43,3.03c0.22,0.3,0.45,0.57,0.7,0.81l-1.74-1.74
							c-0.25-0.25-0.48-0.52-0.7-0.81C198.11,64.78,197.63,63.77,197.3,62.59"/>
					</g>
				</g>
			</g>
			<g class="st1">
				<g>
					<defs>
						<path id="SVGID_109_" d="M203.71,38.92c-0.17-0.17-0.34-0.34-0.52-0.52c-0.22-0.22-0.44-0.44-0.66-0.66
							c-0.05-0.05-0.12-0.12-0.17-0.17c-0.08-0.08-0.16-0.16-0.24-0.24c-0.05-0.05-0.13-0.09-0.15-0.15
							c0.2-0.24,0.39-0.47,0.59-0.69c0.58,0.58,1.16,1.16,1.74,1.75C204.1,38.45,203.9,38.68,203.71,38.92z"/>
					</defs>
					<clipPath id="SVGID_110_">
						<use xlink:href="#SVGID_109_"  style="overflow:visible;"/>
					</clipPath>
					<g class="st70">
						<path class="st8" d="M215.74,35.12l1.74,1.74c-1.51-1.51-3.43-2.28-5.72-2.28c-3.69,0-6.92,2.21-9.61,6.55l-1.74-1.74
							c2.69-4.34,5.92-6.55,9.61-6.55C212.31,32.83,214.22,33.6,215.74,35.12"/>
					</g>
				</g>
			</g>
			<g class="st1">
				<g>
					<defs>
						<path id="SVGID_111_" d="M203.71,38.92c-0.31,0.38-0.62,0.79-0.92,1.22c-0.33-0.33-0.66-0.66-0.99-0.99
							c-0.18-0.18-0.37-0.37-0.55-0.55c-0.06-0.06-0.17-0.12-0.2-0.2c0.3-0.43,0.61-0.84,0.92-1.22
							C202.55,37.76,203.13,38.34,203.71,38.92z"/>
					</defs>
					<clipPath id="SVGID_112_">
						<use xlink:href="#SVGID_111_"  style="overflow:visible;"/>
					</clipPath>
					<g class="st71">
						<path class="st8" d="M215.74,35.12l1.74,1.74c-1.51-1.51-3.43-2.28-5.72-2.28c-3.69,0-6.92,2.21-9.61,6.55l-1.74-1.74
							c2.69-4.34,5.92-6.55,9.61-6.55C212.31,32.83,214.22,33.6,215.74,35.12"/>
					</g>
				</g>
			</g>
			<g>
				<polygon points="241.87,1 243.62,2.75 229.77,2.75 228.02,1 				"/>
			</g>
			<g>
				<polygon points="243.08,0 244.83,1.75 244.72,2.34 242.97,0.6 				"/>
			</g>
			<g class="st1">
				<g>
					<defs>
						<path id="SVGID_113_" d="M217.48,36.86c-1.06-1.06-2.31-1.75-3.76-2.08c-0.29-0.29-0.58-0.58-0.87-0.87
							c-0.29-0.29-0.58-0.58-0.87-0.87c1.44,0.32,2.7,1.02,3.76,2.08C216.26,35.64,216.96,36.34,217.48,36.86z"/>
					</defs>
					<clipPath id="SVGID_114_">
						<use xlink:href="#SVGID_113_"  style="overflow:visible;"/>
					</clipPath>
					<g class="st72">
						<path class="st8" d="M215.74,35.12l1.74,1.74c-1.51-1.51-3.43-2.28-5.72-2.28c-3.69,0-6.92,2.21-9.61,6.55l-1.74-1.74
							c2.69-4.34,5.92-6.55,9.61-6.55C212.31,32.83,214.22,33.6,215.74,35.12"/>
					</g>
				</g>
			</g>
			<g class="st1">
				<g>
					<defs>
						<path id="SVGID_115_" d="M218.8,27.09c2.01,2.01,3.24,4.68,3.68,7.95l-1.74-1.74c-0.45-3.27-1.68-5.95-3.68-7.95
							C217.58,25.87,218.27,26.57,218.8,27.09z"/>
					</defs>
					<clipPath id="SVGID_116_">
						<use xlink:href="#SVGID_115_"  style="overflow:visible;"/>
					</clipPath>
					<g class="st73">
						<path class="st19" d="M217.05,25.35l1.74,1.74c1.5,1.5,2.56,3.37,3.19,5.58l-1.74-1.74
							C219.61,28.71,218.55,26.84,217.05,25.35"/>
						<path class="st18" d="M220.24,30.93l1.74,1.74c0.21,0.75,0.38,1.55,0.49,2.38l-1.74-1.74
							C220.62,32.47,220.46,31.68,220.24,30.93"/>
					</g>
				</g>
			</g>
			<g class="st1">
				<g>
					<defs>
						<path id="SVGID_117_" d="M217.75,24.63l1.74,1.74c1.63,1.63,2.79,3.66,3.46,6.05l-1.74-1.74
							C220.54,28.29,219.38,26.26,217.75,24.63z"/>
					</defs>
					<clipPath id="SVGID_118_">
						<use xlink:href="#SVGID_117_"  style="overflow:visible;"/>
					</clipPath>
					<g class="st74">
						<path d="M217.75,24.63l1.74,1.74c1.62,1.62,2.77,3.62,3.45,5.99l-1.74-1.74C220.52,28.25,219.37,26.25,217.75,24.63"/>
						<path d="M221.2,30.62l1.74,1.74c0.01,0.02,0.01,0.04,0.02,0.06l-1.74-1.74C221.21,30.66,221.2,30.64,221.2,30.62"/>
					</g>
				</g>
			</g>
			<g>
				<polygon class="st55" points="220.73,33.3 222.48,35.05 222.88,38.06 221.14,36.31 				"/>
			</g>
			<g>
				<polygon points="228.02,1 229.77,2.75 222.88,38.06 221.14,36.31 				"/>
			</g>
			<g class="st1">
				<g>
					<defs>
						<path id="SVGID_119_" d="M217.05,25.35l1.74,1.74c-0.2-0.2-0.41-0.4-0.63-0.59c-2.38-2.06-5.44-3.09-9.08-3.09
							c-3.83,0-7.53,1.21-10.99,3.61c-3.47,2.42-6.39,5.81-8.68,10.08c-1.88,3.56-3.35,7.54-4.39,11.83s-1.57,8.64-1.57,12.95
							c-0.01,6.29,1.41,11.31,4.21,14.91c0.4,0.51,0.81,0.99,1.25,1.43l-1.74-1.74c-0.44-0.44-0.86-0.91-1.25-1.43
							c-2.8-3.61-4.22-8.63-4.21-14.91c0.01-4.31,0.53-8.66,1.57-12.95c1.04-4.29,2.51-8.27,4.39-11.83
							c2.29-4.27,5.21-7.66,8.68-10.08c3.46-2.39,7.16-3.61,10.99-3.61c3.64,0,6.7,1.03,9.08,3.09
							C216.64,24.95,216.85,25.14,217.05,25.35z"/>
					</defs>
					<clipPath id="SVGID_120_">
						<use xlink:href="#SVGID_119_"  style="overflow:visible;"/>
					</clipPath>
					<g class="st75">
						<path d="M217.05,25.35l1.74,1.74c-0.2-0.2-0.41-0.4-0.63-0.59c-2.38-2.06-5.44-3.09-9.08-3.09c-3.83,0-7.53,1.21-10.99,3.61
							c-2.94,2.05-5.48,4.79-7.58,8.18l-1.74-1.74c2.1-3.38,4.64-6.13,7.58-8.18c3.46-2.39,7.16-3.61,10.99-3.61
							c3.64,0,6.7,1.03,9.08,3.09C216.64,24.95,216.85,25.14,217.05,25.35"/>
						<path d="M188.77,33.45l1.74,1.74c-0.38,0.61-0.75,1.25-1.1,1.91c-0.78,1.49-1.5,3.05-2.14,4.67l-1.74-1.74
							c0.64-1.63,1.35-3.19,2.14-4.67C188.02,34.7,188.39,34.06,188.77,33.45"/>
						<path d="M185.53,40.03l1.74,1.74c-0.89,2.26-1.64,4.66-2.25,7.15c-0.07,0.3-0.14,0.59-0.21,0.89l-1.74-1.74
							c0.07-0.3,0.14-0.6,0.21-0.89C183.89,44.68,184.64,42.29,185.53,40.03"/>
						<path d="M183.07,48.07l1.74,1.74c-0.61,2.71-1.02,5.44-1.22,8.17l-1.74-1.74C182.06,53.52,182.46,50.78,183.07,48.07"/>
						<path d="M181.86,56.24l1.74,1.74c-0.1,1.3-0.14,2.6-0.15,3.89c0,1.11,0.04,2.17,0.13,3.2l-1.74-1.74
							c-0.09-1.03-0.13-2.09-0.13-3.2C181.71,58.84,181.76,57.54,181.86,56.24"/>
						<path d="M181.84,63.33l1.74,1.74c0.16,1.91,0.47,3.68,0.94,5.31l-1.74-1.74C182.31,67.01,182,65.24,181.84,63.33"/>
						<path d="M182.77,68.64l1.74,1.74c0.7,2.47,1.75,4.61,3.15,6.41c0.4,0.51,0.81,0.99,1.25,1.43l-1.74-1.74
							c-0.44-0.44-0.86-0.91-1.25-1.43C184.53,73.25,183.48,71.11,182.77,68.64"/>
					</g>
				</g>
			</g>
			<g class="st1">
				<g>
					<defs>
						<path id="SVGID_121_" d="M215.74,35.12l1.74,1.74c0.29,0.29,0.56,0.6,0.81,0.94c1.58,2.1,2.38,4.98,2.37,8.6
							c-0.01,6.75-1.46,12.59-4.33,17.33c-2.91,4.83-6.43,7.28-10.46,7.28c-2.19,0-4.01-0.71-5.42-2.13l-1.74-1.74
							c1.41,1.41,3.23,2.13,5.42,2.13c4.03,0,7.55-2.45,10.46-7.28c2.87-4.74,4.32-10.58,4.33-17.33c0-3.62-0.79-6.5-2.37-8.6
							C216.29,35.72,216.02,35.4,215.74,35.12z"/>
					</defs>
					<clipPath id="SVGID_122_">
						<use xlink:href="#SVGID_121_"  style="overflow:visible;"/>
					</clipPath>
					<g class="st76">
						<path d="M215.74,35.12l1.74,1.74c0.29,0.29,0.56,0.6,0.81,0.94c0.77,1.02,1.36,2.23,1.75,3.63l-1.74-1.74
							c-0.4-1.39-0.98-2.6-1.75-3.63C216.29,35.72,216.02,35.4,215.74,35.12"/>
						<path d="M218.3,39.68l1.74,1.74c0.27,0.95,0.45,1.98,0.55,3.1l-1.74-1.74C218.75,41.66,218.57,40.63,218.3,39.68"/>
						<path d="M218.85,42.78l1.74,1.74c0.05,0.6,0.08,1.23,0.07,1.87c0,1.09-0.04,2.15-0.12,3.19l-1.74-1.74
							c0.08-1.04,0.12-2.1,0.12-3.19C218.92,44,218.9,43.38,218.85,42.78"/>
						<path d="M218.81,47.84l1.74,1.74c-0.14,1.91-0.41,3.74-0.8,5.48l-1.74-1.74C218.4,51.59,218.66,49.76,218.81,47.84"/>
						<path d="M218.01,53.33l1.74,1.74c-0.36,1.59-0.82,3.11-1.39,4.56l-1.74-1.74C217.18,56.44,217.65,54.92,218.01,53.33"/>
						<path d="M216.61,57.88l1.74,1.74c-0.57,1.45-1.24,2.81-2.02,4.1c-0.06,0.09-0.11,0.18-0.17,0.27l-1.74-1.74
							c0.06-0.09,0.11-0.18,0.17-0.27C215.37,60.7,216.04,59.33,216.61,57.88"/>
						<path d="M214.42,62.26l1.74,1.74c-2.88,4.65-6.34,7-10.29,7c-2.19,0-4.01-0.71-5.42-2.13l-1.74-1.74
							c1.41,1.41,3.23,2.13,5.42,2.13C208.08,69.26,211.55,66.91,214.42,62.26"/>
					</g>
				</g>
			</g>
			<g class="st1">
				<g>
					<defs>
						<path id="SVGID_123_" d="M199.01,82.18c-4.07,0-7.46-1.33-10.09-3.96l-1.74-1.74c2.63,2.63,6.02,3.96,10.09,3.96
							C197.85,81.01,198.43,81.6,199.01,82.18c-0.58-0.58-1.16-1.16-1.74-1.74c3.11,0,6.05-0.82,8.75-2.44
							c0.58,0.58,1.16,1.16,1.74,1.74l0,0C205.06,81.36,202.12,82.18,199.01,82.18z"/>
					</defs>
					<clipPath id="SVGID_124_">
						<use xlink:href="#SVGID_123_"  style="overflow:visible;"/>
					</clipPath>
					<g class="st77">
						<path class="st8" d="M213.41,70.75l1.74,1.74c-2.18,3.18-4.67,5.61-7.39,7.24c-2.7,1.62-5.64,2.44-8.75,2.44
							c-4.07,0-7.46-1.33-10.09-3.96l-1.74-1.74c2.63,2.63,6.02,3.96,10.09,3.96c3.11,0,6.05-0.82,8.75-2.44
							C208.74,76.37,211.23,73.93,213.41,70.75"/>
					</g>
				</g>
			</g>
			<g>
				<polygon class="st8" points="214.75,68.81 216.49,70.56 215.16,72.5 213.41,70.75 				"/>
			</g>
			<g class="st1">
				<g>
					<defs>
						<path id="SVGID_125_" d="M207.76,79.74c-0.58-0.58-1.16-1.16-1.74-1.74c2.72-1.63,5.21-4.07,7.39-7.24l1.74,1.74
							C212.98,75.67,210.48,78.11,207.76,79.74z"/>
					</defs>
					<clipPath id="SVGID_126_">
						<use xlink:href="#SVGID_125_"  style="overflow:visible;"/>
					</clipPath>
					<g class="st78">
						<path class="st8" d="M213.41,70.75l1.74,1.74c-2.18,3.18-4.67,5.61-7.39,7.24c-2.7,1.62-5.64,2.44-8.75,2.44
							c-4.07,0-7.46-1.33-10.09-3.96l-1.74-1.74c2.63,2.63,6.02,3.96,10.09,3.96c3.11,0,6.05-0.82,8.75-2.44
							C208.74,76.37,211.23,73.93,213.41,70.75"/>
					</g>
				</g>
			</g>
			<g class="st1">
				<g>
					<defs>
						<path id="SVGID_127_" d="M188.22,78.93l-1.74-1.74c2.82,2.82,6.44,4.25,10.79,4.25c3.29,0,6.41-0.87,9.27-2.59
							c2.31-1.39,4.46-3.32,6.4-5.76l1.74,1.74c-1.95,2.44-4.09,4.37-6.4,5.76c-2.85,1.72-5.98,2.59-9.27,2.59
							C194.66,83.19,191.04,81.76,188.22,78.93z"/>
					</defs>
					<clipPath id="SVGID_128_">
						<use xlink:href="#SVGID_127_"  style="overflow:visible;"/>
					</clipPath>
					<g class="st79">
						<path d="M212.93,73.09l1.74,1.74c-1.95,2.44-4.09,4.37-6.4,5.76c-2.85,1.72-5.98,2.59-9.27,2.59c-4.35,0-7.96-1.43-10.79-4.25
							l-1.74-1.74c2.82,2.82,6.44,4.25,10.79,4.25c3.29,0,6.41-0.87,9.27-2.59C208.84,77.46,210.99,75.53,212.93,73.09"/>
					</g>
				</g>
			</g>
			<g>
				<polygon points="214.75,68.81 216.49,70.56 214.59,80.71 212.84,78.97 				"/>
			</g>
			<g>
				<path class="st5" d="M228.02,1h13.85L226.6,78.97h-13.75l1.9-10.15l-1.33,1.94c-2.18,3.18-4.67,5.61-7.39,7.24
					c-2.7,1.62-5.64,2.44-8.75,2.44c-4.75,0-8.57-1.81-11.34-5.39c-2.8-3.61-4.22-8.63-4.21-14.91c0.01-4.31,0.53-8.66,1.57-12.95
					c1.04-4.29,2.51-8.27,4.39-11.83c2.29-4.27,5.21-7.66,8.68-10.08c3.46-2.39,7.16-3.61,10.99-3.61c3.64,0,6.7,1.03,9.08,3.09
					s3.83,4.94,4.32,8.54l0.4,3.01L228.02,1z M214.59,61.98c2.87-4.74,4.32-10.58,4.33-17.33c0-3.62-0.79-6.5-2.37-8.6
					c-1.62-2.13-3.81-3.22-6.54-3.22c-3.93,0-7.34,2.51-10.14,7.44c-2.74,4.84-4.14,10.78-4.15,17.67c0,3.52,0.74,6.3,2.19,8.27
					c1.5,2.02,3.59,3.05,6.21,3.05C208.16,69.26,211.68,66.81,214.59,61.98"/>
			</g>
			<g>
				<polygon class="st3" points="226.6,78.97 228.34,80.71 214.59,80.71 212.84,78.97 				"/>
			</g>
			<g>
				<polygon class="st60" points="241.87,1 243.62,2.75 228.34,80.71 226.6,78.97 				"/>
			</g>
			<g>
				<path d="M227.2,0h15.88l-0.11,0.59l-15.56,79.37h-15.78l1.29-6.87c-1.95,2.44-4.09,4.37-6.4,5.76
					c-2.85,1.72-5.98,2.59-9.27,2.59c-5.07,0-9.15-1.94-12.14-5.78c-2.94-3.79-4.43-9.01-4.42-15.52c0.01-4.39,0.55-8.82,1.61-13.19
					s2.56-8.43,4.47-12.06c2.37-4.42,5.4-7.92,9.01-10.43c3.62-2.52,7.52-3.8,11.55-3.8c3.89,0,7.17,1.12,9.74,3.35
					c1.99,1.73,3.38,3.97,4.14,6.68L227.2,0z M226.6,78.97l15.28-77.96h-13.85l-6.89,35.31l-0.4-3.01
					c-0.49-3.61-1.93-6.49-4.32-8.54s-5.44-3.09-9.08-3.09c-3.83,0-7.53,1.21-10.99,3.61c-3.47,2.42-6.39,5.81-8.68,10.08
					c-1.88,3.56-3.35,7.54-4.39,11.83s-1.57,8.64-1.57,12.95c-0.01,6.29,1.41,11.31,4.21,14.91c2.77,3.58,6.6,5.39,11.34,5.39
					c3.11,0,6.05-0.82,8.75-2.44c2.72-1.63,5.21-4.07,7.39-7.24l1.33-1.94l-1.9,10.15L226.6,78.97"/>
			</g>
			<g>
				<path d="M210.01,32.83c2.73,0,4.92,1.09,6.54,3.22c1.58,2.1,2.38,4.98,2.37,8.6c-0.01,6.75-1.46,12.59-4.33,17.33
					c-2.91,4.83-6.43,7.28-10.46,7.28c-2.63,0-4.71-1.03-6.21-3.05c-1.45-1.97-2.2-4.75-2.19-8.27c0.01-6.89,1.41-12.84,4.15-17.67
					C202.67,35.34,206.08,32.83,210.01,32.83z M213.74,61.47c2.77-4.59,4.18-10.24,4.18-16.82c0-3.39-0.73-6.08-2.18-8
					c-1.43-1.9-3.31-2.82-5.74-2.82c-3.54,0-6.66,2.33-9.26,6.93c-2.66,4.69-4.02,10.47-4.02,17.18c0,3.29,0.68,5.87,2.01,7.67
					c1.31,1.77,3.08,2.64,5.4,2.64C207.78,68.25,211.02,65.98,213.74,61.47"/>
			</g>
			<g>
				<polygon points="262.28,23.13 264.03,24.87 249.98,24.87 248.23,23.13 				"/>
			</g>
			<g>
				<polygon points="263.11,22.13 264.86,23.88 264.94,24.29 263.19,22.54 				"/>
			</g>
			<g>
				<polygon points="227.41,79.96 229.16,81.71 213.38,81.71 211.64,79.96 				"/>
			</g>
			<g>
				<polygon points="242.97,0.6 244.72,2.34 229.16,81.71 227.41,79.96 				"/>
			</g>
			<g>
				<polygon class="st80" points="262.28,23.13 264.03,24.87 270.6,61.37 268.86,59.63 				"/>
			</g>
			<g>
				<polygon points="263.19,22.54 264.94,24.29 271.08,58.41 269.34,56.67 				"/>
			</g>
			<g>
				<polygon points="303.4,23.13 305.14,24.87 290.62,24.87 288.87,23.13 				"/>
			</g>
			<g>
				<polygon points="288.87,23.13 290.62,24.87 270.6,61.37 268.86,59.63 				"/>
			</g>
			<g>
				<polygon points="244.04,90.16 245.79,91.91 240.26,91.91 238.52,90.16 				"/>
			</g>
			<g>
				<polygon points="248.23,23.13 249.98,24.87 260.84,79 259.1,77.26 				"/>
			</g>
			<g>
				<polygon points="238.52,90.16 240.26,91.91 238.16,102.23 236.42,100.48 				"/>
			</g>
			<g>
				<polygon points="259.1,77.26 260.84,79 258.78,82.92 257.03,81.17 				"/>
			</g>
			<g class="st1">
				<g>
					<defs>
						<path id="SVGID_129_" d="M257.03,81.17l1.74,1.74c-2.1,3.9-3.99,6.33-5.77,7.4c-1.76,1.05-4.19,1.59-7.22,1.59l-1.74-1.74
							c3.02,0,5.45-0.54,7.22-1.59C253.04,87.5,254.93,85.07,257.03,81.17z"/>
					</defs>
					<clipPath id="SVGID_130_">
						<use xlink:href="#SVGID_129_"  style="overflow:visible;"/>
					</clipPath>
					<g class="st81">
						<path d="M257.03,81.17l1.74,1.74c-0.48,0.88-0.94,1.69-1.39,2.42l-1.74-1.74C256.09,82.86,256.56,82.05,257.03,81.17"/>
						<path d="M255.64,83.59l1.74,1.74c-1.56,2.51-3,4.15-4.38,4.98c-1.76,1.05-4.19,1.59-7.22,1.59l-1.74-1.74
							c3.02,0,5.45-0.54,7.22-1.59C252.64,87.74,254.08,86.1,255.64,83.59"/>
					</g>
				</g>
			</g>
			<g>
				<polygon class="st3" points="247.99,100.48 249.73,102.23 238.16,102.23 236.42,100.48 				"/>
			</g>
			<g>
				<polygon points="247.99,101.48 249.73,103.22 236.94,103.22 235.2,101.48 				"/>
			</g>
			<g>
				<polygon class="st82" points="303.4,23.13 305.14,24.87 269.66,87.11 267.92,85.36 				"/>
			</g>
			<g>
				<polygon points="305.12,22.13 306.86,23.88 270.53,87.59 268.79,85.85 				"/>
			</g>
			<g class="st1">
				<g>
					<defs>
						<path id="SVGID_131_" d="M260,99.64c-2.66,1.71-6.12,2.58-10.27,2.58l-1.74-1.74c4.15,0,7.6-0.87,10.27-2.58l0,0l0,0
							C258.83,98.48,259.42,99.06,260,99.64c-0.58-0.58-1.16-1.16-1.74-1.75c2.67-1.73,5.93-5.95,9.67-12.54l1.74,1.74
							C265.93,93.7,262.67,97.92,260,99.64z"/>
					</defs>
					<clipPath id="SVGID_132_">
						<use xlink:href="#SVGID_131_"  style="overflow:visible;"/>
					</clipPath>
					<g class="st83">
						<path class="st4" d="M267.92,85.36l1.74,1.74c-0.67,1.18-1.32,2.29-1.96,3.32l-1.74-1.74
							C266.6,87.65,267.25,86.54,267.92,85.36"/>
						<path class="st8" d="M265.96,88.68l1.74,1.74c-2.92,4.71-5.51,7.81-7.71,9.22c-2.66,1.71-6.12,2.58-10.27,2.58l-1.74-1.74
							c4.15,0,7.6-0.87,10.27-2.58C260.45,96.48,263.04,93.39,265.96,88.68"/>
					</g>
				</g>
			</g>
			<g>
				<path d="M288.29,22.13h16.83l-36.33,63.72c-3.88,6.84-7.15,11.05-10,12.89c-2.83,1.82-6.46,2.74-10.81,2.74H235.2l2.51-12.31
					h6.34c2.84,0,5.09-0.49,6.7-1.45c1.6-0.97,3.42-3.33,5.41-7.02l1.89-3.6l-11.02-54.97h16.09l0.08,0.41l6.15,34.13L288.29,22.13z
					 M267.92,85.36l35.48-62.23h-14.53l-20.01,36.5l-6.58-36.5h-14.05l10.86,54.13l-2.06,3.91c-2.1,3.9-3.99,6.33-5.77,7.4
					c-1.76,1.05-4.19,1.59-7.22,1.59h-5.52l-2.1,10.32h11.57c4.15,0,7.6-0.87,10.27-2.58C260.93,96.17,264.19,91.95,267.92,85.36"/>
			</g>
			<g>
				<path class="st5" d="M303.4,23.13l-35.48,62.23c-3.73,6.59-6.99,10.81-9.67,12.54c-2.66,1.71-6.12,2.58-10.27,2.58h-11.57
					l2.1-10.32h5.52c3.02,0,5.45-0.54,7.22-1.59c1.78-1.07,3.67-3.5,5.77-7.4l2.06-3.91l-10.86-54.13h14.05l6.58,36.5l20.01-36.5
					C288.86,23.13,303.4,23.13,303.4,23.13z"/>
			</g>
			<g class="st1">
				<g>
					<defs>
						<path id="SVGID_133_" d="M268.79,85.85l1.74,1.74c-3.88,6.84-7.15,11.05-10,12.89c-2.83,1.82-6.46,2.74-10.81,2.74l-1.74-1.74
							c4.34,0,7.98-0.93,10.81-2.74C261.64,96.9,264.91,92.68,268.79,85.85z"/>
					</defs>
					<clipPath id="SVGID_134_">
						<use xlink:href="#SVGID_133_"  style="overflow:visible;"/>
					</clipPath>
					<g class="st84">
						<path d="M268.79,85.85l1.74,1.74c-0.69,1.22-1.36,2.35-2.02,3.41l-1.74-1.74C267.43,88.2,268.1,87.07,268.79,85.85"/>
						<path d="M266.78,89.25l1.74,1.74c-3.01,4.86-5.64,7.97-7.98,9.48c-2.83,1.82-6.46,2.74-10.81,2.74l-1.74-1.74
							c4.34,0,7.98-0.93,10.81-2.74C261.14,97.23,263.76,94.11,266.78,89.25"/>
					</g>
				</g>
			</g>
		</g>
	</g>
</g>
</svg>
